<svg xmlns="http://www.w3.org/2000/svg" xmlns:xlink="http://www.w3.org/1999/xlink" xmlns:inkscape="http://www.inkscape.org/namespaces/inkscape" version="1.1" width="460.36625" height="207.75063" viewBox="0 0 460.36625 207.75063">
<defs>
<g id="font_1_48">
<path transform="matrix(.001,0,0,.001,0,0)" d="M318 664C267 664 229 639 203 589 177 539 165 464 165 364 165 264 177 189 203 139 229 89 267 64 318 64 369 64 407 89 433 139 458 189 471 264 471 364 471 464 458 539 433 589 407 639 369 664 318 664ZM318 742C399 742 461 709 505 645 548 580 570 486 570 364 570 241 548 147 505 83 461 19 399-13 317-13 235-13 173 19 130 83 87 147 66 241 66 364 66 486 87 580 130 645 173 709 236 742 318 742Z"/>
</g>
<g id="font_1_50">
<path transform="matrix(.001,0,0,.001,0,0)" d="M192 83H536V0H73V83C110 121 161 173 226 239 290 304 331 346 348 365 380 400 402 430 414 455 426 479 433 504 433 528 433 566 419 598 392 622 365 646 330 659 286 659 255 659 222 653 188 643 154 632 117 616 78 594V694C118 710 155 722 189 730 223 738 255 742 284 742 359 742 419 723 464 685 509 647 532 597 532 534 532 504 526 475 515 449 504 422 484 390 454 354 446 344 420 317 376 272 332 227 271 164 192 83Z"/>
</g>
<g id="font_1_52">
<path transform="matrix(.001,0,0,.001,0,0)" d="M378 643 129 254H378V643ZM352 729H476V254H580V172H476V0H378V172H49V267L352 729Z"/>
</g>
<g id="font_1_54">
<path transform="matrix(.001,0,0,.001,0,0)" d="M330 404C286 404 251 388 225 358 199 328 186 286 186 234 186 181 199 139 225 109 251 79 286 64 330 64 374 64 409 79 435 109 461 139 474 181 474 234 474 286 461 328 435 358 409 388 374 404 330 404ZM526 713V623C501 635 476 644 451 650 425 656 400 659 376 659 310 659 260 637 226 593 192 549 172 482 168 394 187 422 211 444 240 459 269 474 301 482 336 482 409 482 467 459 509 415 551 371 573 310 573 234 573 159 550 99 506 54 462 9 403-13 330-13 246-13 181 19 137 83 92 147 70 241 70 364 70 479 97 571 152 639 206 707 280 742 372 742 396 742 421 739 447 735 472 730 498 723 526 713Z"/>
</g>
<g id="font_1_56">
<path transform="matrix(.001,0,0,.001,0,0)" d="M318 346C271 346 234 333 207 308 180 283 167 249 167 205 167 161 180 126 207 101 234 76 271 64 318 64 364 64 401 76 428 102 455 127 469 161 469 205 469 249 455 283 429 308 402 333 365 346 318 346ZM219 388C177 398 144 418 120 447 96 476 85 511 85 553 85 611 105 657 147 691 188 725 245 742 318 742 390 742 447 725 489 691 530 657 551 611 551 553 551 511 539 476 515 447 491 418 459 398 417 388 464 377 501 355 528 323 554 291 568 251 568 205 568 134 546 80 503 43 459 5 397-13 317-13 237-13 175 5 132 43 89 80 68 134 68 205 68 251 81 291 108 323 134 355 171 377 219 388ZM183 544C183 506 194 476 218 455 242 434 275 424 318 424 360 424 393 434 417 455 441 476 453 506 453 544 453 582 441 611 417 632 393 653 360 664 318 664 275 664 242 653 218 632 194 611 183 582 183 544Z"/>
</g>
<g id="font_1_49">
<path transform="matrix(.001,0,0,.001,0,0)" d="M124 83H285V639L110 604V694L284 729H383V83H544V0H124V83Z"/>
</g>
<g id="font_1_83">
<path transform="matrix(.001,0,0,.001,0,0)" d="M535 705V609C497 627 462 640 429 649 395 657 363 662 333 662 279 662 237 651 208 631 179 610 165 580 165 542 165 510 174 485 194 469 213 452 250 439 304 429L364 417C437 403 491 378 526 343 561 307 579 260 579 201 579 130 555 77 508 41 460 5 391-13 300-13 265-13 228-9 189-2 150 5 110 16 69 32V134C109 111 148 94 186 83 224 71 262 66 300 66 356 66 399 77 430 99 460 121 476 152 476 194 476 230 465 258 443 278 421 298 385 313 335 323L275 335C201 349 148 372 115 404 82 435 66 478 66 534 66 598 88 649 134 686 179 723 242 742 322 742 356 742 390 739 426 733 461 727 497 717 535 705Z"/>
</g>
<g id="font_1_105">
<path transform="matrix(.001,0,0,.001,0,0)" d="M94 547H184V0H94V547ZM94 760H184V646H94V760Z"/>
</g>
<g id="font_1_109">
<path transform="matrix(.001,0,0,.001,0,0)" d="M520 442C542 482 569 511 600 531 631 550 668 560 711 560 767 560 811 540 842 500 873 460 889 403 889 330V0H799V327C799 379 789 418 771 444 752 469 724 482 686 482 639 482 602 466 575 435 548 404 535 362 535 309V0H445V327C445 379 435 418 417 444 398 469 369 482 331 482 285 482 248 466 221 435 194 404 181 362 181 309V0H91V547H181V462C201 495 226 520 255 536 283 552 317 560 357 560 397 560 430 550 458 530 486 510 506 480 520 442Z"/>
</g>
<g id="font_1_117">
<path transform="matrix(.001,0,0,.001,0,0)" d="M85 216V547H175V219C175 167 185 129 205 103 225 77 255 64 296 64 344 64 383 79 411 110 439 141 453 183 453 237V547H543V0H453V84C431 50 405 26 377 10 348-5 315-13 277-13 214-13 166 6 134 45 101 83 85 140 85 216ZM311 560V560Z"/>
</g>
<g id="font_1_108">
<path transform="matrix(.001,0,0,.001,0,0)" d="M94 760H184V0H94V760Z"/>
</g>
<g id="font_1_97">
<path transform="matrix(.001,0,0,.001,0,0)" d="M343 275C270 275 220 266 192 250 164 233 150 205 150 165 150 133 160 107 181 89 202 70 231 61 267 61 317 61 357 78 387 114 417 149 432 196 432 255V275H343ZM522 312V0H432V83C411 49 385 25 355 10 325-5 287-13 243-13 187-13 142 2 109 33 76 64 60 106 60 159 60 220 80 266 122 298 163 329 224 345 306 345H432V354C432 395 418 427 391 450 364 472 326 484 277 484 245 484 215 480 185 472 155 464 127 453 100 439V522C132 534 164 544 195 550 226 556 256 560 286 560 365 560 424 539 463 498 502 457 522 395 522 312Z"/>
</g>
<g id="font_1_116">
<path transform="matrix(.001,0,0,.001,0,0)" d="M183 702V547H368V477H183V180C183 135 189 106 201 94 213 81 238 75 276 75H368V0H276C206 0 158 13 132 39 106 65 93 112 93 180V477H27V547H93V702H183Z"/>
</g>
<g id="font_1_111">
<path transform="matrix(.001,0,0,.001,0,0)" d="M306 484C258 484 220 465 192 427 164 389 150 338 150 273 150 207 163 156 191 118 219 80 257 62 306 62 354 62 392 80 420 118 448 156 462 207 462 273 462 337 448 389 420 427 392 465 354 484 306 484ZM306 560C384 560 445 534 490 484 534 433 557 363 557 273 557 183 534 113 490 63 445 12 384-13 306-13 227-13 165 12 121 63 77 113 55 183 55 273 55 363 77 433 121 484 165 534 227 560 306 560Z"/>
</g>
<g id="font_1_110">
<path transform="matrix(.001,0,0,.001,0,0)" d="M549 330V0H459V327C459 379 448 417 428 443 408 469 378 482 338 482 289 482 251 466 223 435 195 404 181 362 181 309V0H91V547H181V462C202 494 227 519 257 535 286 551 320 560 358 560 420 560 468 540 500 501 532 462 549 405 549 330Z"/>
</g>
<g id="font_1_32">
</g>
<g id="font_1_101">
<path transform="matrix(.001,0,0,.001,0,0)" d="M562 296V252H149C153 190 171 142 205 110 238 78 284 62 344 62 378 62 412 66 444 74 476 82 509 95 541 113V28C509 14 476 3 442-3 408-9 373-13 339-13 251-13 182 12 131 62 80 112 55 181 55 268 55 357 79 428 127 481 175 533 241 560 323 560 397 560 455 536 498 489 540 441 562 377 562 296ZM472 322C471 371 457 410 431 440 404 469 368 484 324 484 274 484 234 469 204 441 174 413 156 373 152 322H472Z"/>
</g>
<g id="font_1_51">
<path transform="matrix(.001,0,0,.001,0,0)" d="M406 393C453 383 490 362 516 330 542 298 556 258 556 212 556 140 531 84 482 45 432 6 362-13 271-13 240-13 208-10 176-4 144 1 110 10 76 22V117C103 101 133 89 166 81 198 73 232 69 268 69 330 69 377 81 409 105 441 129 458 165 458 212 458 254 443 288 413 312 383 336 341 349 287 349H202V430H291C339 430 376 439 402 459 428 478 441 506 441 543 441 580 427 609 401 629 374 649 336 659 287 659 260 659 231 656 200 650 169 644 135 635 98 623V711C135 721 170 729 203 734 235 739 266 742 296 742 370 742 429 725 473 691 517 657 539 611 539 553 539 513 527 479 504 451 481 423 448 403 406 393Z"/>
</g>
<g id="font_1_53">
<path transform="matrix(.001,0,0,.001,0,0)" d="M108 729H495V646H198V467C212 472 227 476 241 478 255 480 270 482 284 482 365 482 429 459 477 415 525 370 549 310 549 234 549 155 524 94 475 51 426 8 357-13 269-13 238-13 207-10 175-6 143-1 111 6 77 17V116C106 100 136 88 168 80 199 72 232 69 267 69 323 69 368 83 401 113 433 143 450 183 450 234 450 284 433 324 401 354 368 384 323 399 267 399 241 399 214 396 188 390 162 384 135 375 108 363V729Z"/>
</g>
<g id="font_1_55">
<path transform="matrix(.001,0,0,.001,0,0)" d="M82 729H551V687L286 0H183L432 646H82V729Z"/>
</g>
<g id="font_1_78">
<path transform="matrix(.001,0,0,.001,0,0)" d="M98 729H231L554 119V729H650V0H517L194 610V0H98V729Z"/>
</g>
<g id="font_1_98">
<path transform="matrix(.001,0,0,.001,0,0)" d="M487 273C487 339 473 390 446 428 418 466 381 485 334 485 286 485 249 466 222 428 194 390 181 339 181 273 181 207 194 155 222 117 249 79 286 61 334 61 381 61 418 79 446 117 473 155 487 207 487 273ZM181 464C199 496 223 520 252 536 281 552 316 560 356 560 422 560 476 533 518 481 559 428 580 359 580 273 580 187 559 117 518 65 476 13 422-13 356-13 316-13 281-5 252 10 223 25 199 49 181 82V0H91V760H181V464Z"/>
</g>
<g id="font_1_114">
<path transform="matrix(.001,0,0,.001,0,0)" d="M411 463C401 469 390 473 378 476 366 478 353 480 339 480 288 480 249 463 222 430 194 397 181 350 181 288V0H91V547H181V462C199 495 224 520 254 536 284 552 321 560 365 560 371 560 378 559 386 559 393 558 401 557 411 555V463Z"/>
</g>
<g id="font_1_115">
<path transform="matrix(.001,0,0,.001,0,0)" d="M443 531V446C417 458 391 468 364 475 336 481 308 485 279 485 234 485 200 478 178 464 156 450 145 430 145 403 145 382 153 366 169 354 185 342 217 330 265 320L296 313C360 299 405 279 432 255 458 230 472 195 472 151 472 100 452 60 412 31 372 1 316-13 246-13 216-13 186-10 154-5 122 0 89 8 54 20V113C87 95 120 82 152 74 184 65 216 61 248 61 290 61 323 68 346 82 368 96 380 117 380 144 380 168 371 187 355 200 339 213 303 226 247 238L216 245C160 257 119 275 95 299 70 323 58 356 58 399 58 450 76 490 112 518 148 546 200 560 268 560 301 560 332 557 362 552 391 547 418 540 443 531Z"/>
</g>
<g id="font_1_121">
<path transform="matrix(.001,0,0,.001,0,0)" d="M322-50C296-114 271-157 247-177 223-197 191-207 151-207H79V-132H132C156-132 175-126 189-114 203-102 218-75 235-31L251 9 30 547H125L296 119 467 547H562L322-50Z"/>
</g>
<clipPath id="clip_2">
<path transform="matrix(1,0,0,-1,0,207.75063)" d="M33.60625 36.590627H453.16627V200.55063H33.60625Z"/>
</clipPath>
<clipPath id="clip_3">
<path transform="matrix(1,0,0,-1,0,207.75063)" d="M33.60625 36.590627H453.16627V200.55063H33.60625Z"/>
</clipPath>
<clipPath id="clip_4">
<path transform="matrix(1,0,0,-1,0,207.75063)" d="M33.60625 36.590627H453.16627V200.55063H33.60625Z"/>
</clipPath>
<clipPath id="clip_5">
<path transform="matrix(1,0,0,-1,0,207.75063)" d="M33.60625 36.590627H453.16627V200.55063H33.60625Z"/>
</clipPath>
<clipPath id="clip_6">
<path transform="matrix(1,0,0,-1,0,207.75063)" d="M33.60625 36.590627H453.16627V200.55063H33.60625Z"/>
</clipPath>
<clipPath id="clip_7">
<path transform="matrix(1,0,0,-1,0,207.75063)" d="M33.60625 36.590627H453.16627V200.55063H33.60625Z"/>
</clipPath>
<clipPath id="clip_8">
<path transform="matrix(1,0,0,-1,0,207.75063)" d="M33.60625 36.590627H453.16627V200.55063H33.60625Z"/>
</clipPath>
<clipPath id="clip_9">
<path transform="matrix(1,0,0,-1,0,207.75063)" d="M33.60625 36.590627H453.16627V200.55063H33.60625Z"/>
</clipPath>
<clipPath id="clip_10">
<path transform="matrix(1,0,0,-1,0,207.75063)" d="M33.60625 36.590627H453.16627V200.55063H33.60625Z"/>
</clipPath>
<clipPath id="clip_11">
<path transform="matrix(1,0,0,-1,0,207.75063)" d="M33.60625 36.590627H453.16627V200.55063H33.60625Z"/>
</clipPath>
<clipPath id="clip_12">
<path transform="matrix(1,0,0,-1,0,207.75063)" d="M33.60625 36.590627H453.16627V200.55063H33.60625Z"/>
</clipPath>
<clipPath id="clip_13">
<path transform="matrix(1,0,0,-1,0,207.75063)" d="M33.60625 36.590627H453.16627V200.55063H33.60625Z"/>
</clipPath>
<clipPath id="clip_14">
<path transform="matrix(1,0,0,-1,0,207.75063)" d="M33.60625 36.590627H453.16627V200.55063H33.60625Z"/>
</clipPath>
<clipPath id="clip_15">
<path transform="matrix(1,0,0,-1,0,207.75063)" d="M33.60625 36.590627H453.16627V200.55063H33.60625Z"/>
</clipPath>
<clipPath id="clip_16">
<path transform="matrix(1,0,0,-1,0,207.75063)" d="M33.60625 36.590627H453.16627V200.55063H33.60625Z"/>
</clipPath>
<clipPath id="clip_17">
<path transform="matrix(1,0,0,-1,0,207.75063)" d="M33.60625 36.590627H453.16627V200.55063H33.60625Z"/>
</clipPath>
<clipPath id="clip_18">
<path transform="matrix(1,0,0,-1,0,207.75063)" d="M33.60625 36.590627H453.16627V200.55063H33.60625Z"/>
</clipPath>
<clipPath id="clip_19">
<path transform="matrix(1,0,0,-1,0,207.75063)" d="M33.60625 36.590627H453.16627V200.55063H33.60625Z"/>
</clipPath>
<g id="font_1_79">
<path transform="matrix(.001,0,0,.001,0,0)" d="M394 662C322 662 265 635 223 582 181 528 160 456 160 364 160 272 181 199 223 146 265 92 322 66 394 66 465 66 522 92 564 146 606 199 627 272 627 364 627 456 606 528 564 582 522 635 465 662 394 662ZM394 742C496 742 577 707 639 639 700 571 731 479 731 364 731 248 700 157 639 89 577 21 496-13 394-13 291-13 209 21 148 89 86 157 56 248 56 364 56 479 86 571 148 639 209 707 291 742 394 742Z"/>
</g>
<g id="font_1_112">
<path transform="matrix(.001,0,0,.001,0,0)" d="M181 82V-207H91V547H181V464C199 496 223 520 252 536 281 552 316 560 356 560 422 560 476 533 518 481 559 428 580 359 580 273 580 187 559 117 518 65 476 13 422-13 356-13 316-13 281-5 252 10 223 25 199 49 181 82ZM487 273C487 339 473 390 446 428 418 466 381 485 334 485 286 485 249 466 222 428 194 390 181 339 181 273 181 207 194 155 222 117 249 79 286 61 334 61 381 61 418 79 446 117 473 155 487 207 487 273Z"/>
</g>
<g id="font_1_104">
<path transform="matrix(.001,0,0,.001,0,0)" d="M549 330V0H459V327C459 379 448 417 428 443 408 469 378 482 338 482 289 482 251 466 223 435 195 404 181 362 181 309V0H91V760H181V462C202 494 227 519 257 535 286 551 320 560 358 560 420 560 468 540 500 501 532 462 549 405 549 330Z"/>
</g>
<g id="font_1_73">
<path transform="matrix(.001,0,0,.001,0,0)" d="M98 729H197V0H98V729Z"/>
</g>
<g id="font_1_99">
<path transform="matrix(.001,0,0,.001,0,0)" d="M488 526V442C462 456 437 466 411 473 385 480 360 484 334 484 276 484 230 465 198 428 166 391 150 339 150 273 150 206 166 154 198 117 230 80 276 62 334 62 360 62 385 65 411 72 437 79 462 90 488 104V21C462 9 436 0 410-5 383-10 354-13 324-13 242-13 176 12 128 64 79 115 55 185 55 273 55 362 79 432 128 483 177 534 244 560 330 560 358 560 385 557 411 551 437 545 463 537 488 526Z"/>
</g>
<g id="font_1_84">
<path transform="matrix(.001,0,0,.001,0,0)" d="M-2 729H614V646H355V0H256V646H-2V729Z"/>
</g>
<g id="font_1_103">
<path transform="matrix(.001,0,0,.001,0,0)" d="M454 280C454 344 440 395 414 431 387 467 349 485 301 485 253 485 215 467 188 431 161 395 148 344 148 280 148 215 161 165 188 129 215 93 253 75 301 75 349 75 387 93 414 129 440 165 454 215 454 280ZM544 68C544-24 523-93 482-139 440-184 377-207 292-207 260-207 231-204 203-200 175-195 147-188 121-178V-91C147-105 173-115 199-122 225-129 251-133 278-133 336-133 380-117 410-87 439-56 454-10 454 52V96C435 64 411 40 382 24 353 8 319 0 279 0 211 0 157 25 116 76 75 127 55 195 55 280 55 364 75 432 116 483 157 534 211 560 279 560 319 560 353 552 382 536 411 520 435 496 454 464V547H544V68Z"/>
</g>
<clipPath id="clip_20">
<path transform="matrix(1,0,0,-1,0,207.75063)" d="M33.60625 36.590627H453.16627V200.55063H33.60625Z"/>
</clipPath>
<clipPath id="clip_21">
<path transform="matrix(1,0,0,-1,0,207.75063)" d="M33.60625 36.590627H453.16627V200.55063H33.60625Z"/>
</clipPath>
<clipPath id="clip_22">
<path transform="matrix(1,0,0,-1,0,207.75063)" d="M33.60625 36.590627H453.16627V200.55063H33.60625Z"/>
</clipPath>
</defs>
<path transform="matrix(1,0,0,-1,0,207.75063)" d="M0 0H460.36625V207.75063H0Z" fill="#ffffff"/>
<path transform="matrix(1,0,0,-1,0,207.75063)" d="M33.60625 36.590627H453.16627V200.55063H33.60625Z" fill="#ffffff"/>
<path transform="matrix(1,0,0,-1,0,207.75063)" d="M33.60625 36.590627V33.090627"/>
<path transform="matrix(1,0,0,-1,0,207.75063)" stroke-width=".8" stroke-linecap="butt" stroke-linejoin="round" fill="none" stroke="#000000" d="M33.60625 36.590627V33.090627"/>
<use data-text="0" xlink:href="#font_1_48" transform="matrix(9,0,0,-9,30.739064,185.00376)"/>
<path transform="matrix(1,0,0,-1,0,207.75063)" d="M100.73585 36.590627V33.090627"/>
<path transform="matrix(1,0,0,-1,0,207.75063)" stroke-width=".8" stroke-linecap="butt" stroke-linejoin="round" fill="none" stroke="#000000" d="M100.73585 36.590627V33.090627"/>
<use data-text="2" xlink:href="#font_1_50" transform="matrix(9,0,0,-9,97.86866,185.00376)"/>
<path transform="matrix(1,0,0,-1,0,207.75063)" d="M167.86545 36.590627V33.090627"/>
<path transform="matrix(1,0,0,-1,0,207.75063)" stroke-width=".8" stroke-linecap="butt" stroke-linejoin="round" fill="none" stroke="#000000" d="M167.86545 36.590627V33.090627"/>
<use data-text="4" xlink:href="#font_1_52" transform="matrix(9,0,0,-9,164.99826,185.00376)"/>
<path transform="matrix(1,0,0,-1,0,207.75063)" d="M234.99506 36.590627V33.090627"/>
<path transform="matrix(1,0,0,-1,0,207.75063)" stroke-width=".8" stroke-linecap="butt" stroke-linejoin="round" fill="none" stroke="#000000" d="M234.99506 36.590627V33.090627"/>
<use data-text="6" xlink:href="#font_1_54" transform="matrix(9,0,0,-9,232.12787,185.00376)"/>
<path transform="matrix(1,0,0,-1,0,207.75063)" d="M302.12467 36.590627V33.090627"/>
<path transform="matrix(1,0,0,-1,0,207.75063)" stroke-width=".8" stroke-linecap="butt" stroke-linejoin="round" fill="none" stroke="#000000" d="M302.12467 36.590627V33.090627"/>
<use data-text="8" xlink:href="#font_1_56" transform="matrix(9,0,0,-9,299.25749,185.00376)"/>
<path transform="matrix(1,0,0,-1,0,207.75063)" d="M369.25425 36.590627V33.090627"/>
<path transform="matrix(1,0,0,-1,0,207.75063)" stroke-width=".8" stroke-linecap="butt" stroke-linejoin="round" fill="none" stroke="#000000" d="M369.25425 36.590627V33.090627"/>
<use data-text="1" xlink:href="#font_1_49" transform="matrix(9,0,0,-9,363.51988,185.00376)"/>
<use data-text="0" xlink:href="#font_1_48" transform="matrix(9,0,0,-9,369.24388,185.00376)"/>
<path transform="matrix(1,0,0,-1,0,207.75063)" d="M436.38386 36.590627V33.090627"/>
<path transform="matrix(1,0,0,-1,0,207.75063)" stroke-width=".8" stroke-linecap="butt" stroke-linejoin="round" fill="none" stroke="#000000" d="M436.38386 36.590627V33.090627"/>
<use data-text="1" xlink:href="#font_1_49" transform="matrix(9,0,0,-9,430.64949,185.00376)"/>
<use data-text="2" xlink:href="#font_1_50" transform="matrix(9,0,0,-9,436.37348,185.00376)"/>
<use data-text="S" xlink:href="#font_1_83" transform="matrix(10,0,0,-10,203.83937,198.4725)"/>
<use data-text="i" xlink:href="#font_1_105" transform="matrix(10,0,0,-10,210.18938,198.4725)"/>
<use data-text="m" xlink:href="#font_1_109" transform="matrix(10,0,0,-10,212.96938,198.4725)"/>
<use data-text="u" xlink:href="#font_1_117" transform="matrix(10,0,0,-10,222.70938,198.4725)"/>
<use data-text="l" xlink:href="#font_1_108" transform="matrix(10,0,0,-10,229.04938,198.4725)"/>
<use data-text="a" xlink:href="#font_1_97" transform="matrix(10,0,0,-10,231.82938,198.4725)"/>
<use data-text="t" xlink:href="#font_1_116" transform="matrix(10,0,0,-10,237.95938,198.4725)"/>
<use data-text="i" xlink:href="#font_1_105" transform="matrix(10,0,0,-10,241.87937,198.4725)"/>
<use data-text="o" xlink:href="#font_1_111" transform="matrix(10,0,0,-10,244.65937,198.4725)"/>
<use data-text="n" xlink:href="#font_1_110" transform="matrix(10,0,0,-10,250.77938,198.4725)"/>
<use data-text=" " xlink:href="#font_1_32" transform="matrix(10,0,0,-10,257.1194,198.4725)"/>
<use data-text="t" xlink:href="#font_1_116" transform="matrix(10,0,0,-10,260.29939,198.4725)"/>
<use data-text="i" xlink:href="#font_1_105" transform="matrix(10,0,0,-10,264.21937,198.4725)"/>
<use data-text="m" xlink:href="#font_1_109" transform="matrix(10,0,0,-10,266.99937,198.4725)"/>
<use data-text="e" xlink:href="#font_1_101" transform="matrix(10,0,0,-10,276.73939,198.4725)"/>
<path transform="matrix(1,0,0,-1,0,207.75063)" d="M33.60625 36.590627H30.10625"/>
<path transform="matrix(1,0,0,-1,0,207.75063)" stroke-width=".8" stroke-linecap="butt" stroke-linejoin="round" fill="none" stroke="#000000" d="M33.60625 36.590627H30.10625"/>
<use data-text="0" xlink:href="#font_1_48" transform="matrix(9,0,0,-9,20.871876,174.58188)"/>
<path transform="matrix(1,0,0,-1,0,207.75063)" d="M33.60625 56.109674H30.10625"/>
<path transform="matrix(1,0,0,-1,0,207.75063)" stroke-width=".8" stroke-linecap="butt" stroke-linejoin="round" fill="none" stroke="#000000" d="M33.60625 56.109674H30.10625"/>
<use data-text="1" xlink:href="#font_1_49" transform="matrix(9,0,0,-9,20.871876,155.06284)"/>
<path transform="matrix(1,0,0,-1,0,207.75063)" d="M33.60625 75.62872H30.10625"/>
<path transform="matrix(1,0,0,-1,0,207.75063)" stroke-width=".8" stroke-linecap="butt" stroke-linejoin="round" fill="none" stroke="#000000" d="M33.60625 75.62872H30.10625"/>
<use data-text="2" xlink:href="#font_1_50" transform="matrix(9,0,0,-9,20.871876,135.54378)"/>
<path transform="matrix(1,0,0,-1,0,207.75063)" d="M33.60625 95.147769H30.10625"/>
<path transform="matrix(1,0,0,-1,0,207.75063)" stroke-width=".8" stroke-linecap="butt" stroke-linejoin="round" fill="none" stroke="#000000" d="M33.60625 95.147769H30.10625"/>
<use data-text="3" xlink:href="#font_1_51" transform="matrix(9,0,0,-9,20.871876,116.024738)"/>
<path transform="matrix(1,0,0,-1,0,207.75063)" d="M33.60625 114.66682H30.10625"/>
<path transform="matrix(1,0,0,-1,0,207.75063)" stroke-width=".8" stroke-linecap="butt" stroke-linejoin="round" fill="none" stroke="#000000" d="M33.60625 114.66682H30.10625"/>
<use data-text="4" xlink:href="#font_1_52" transform="matrix(9,0,0,-9,20.871876,96.505687)"/>
<path transform="matrix(1,0,0,-1,0,207.75063)" d="M33.60625 134.18587H30.10625"/>
<path transform="matrix(1,0,0,-1,0,207.75063)" stroke-width=".8" stroke-linecap="butt" stroke-linejoin="round" fill="none" stroke="#000000" d="M33.60625 134.18587H30.10625"/>
<use data-text="5" xlink:href="#font_1_53" transform="matrix(9,0,0,-9,20.871876,76.98663)"/>
<path transform="matrix(1,0,0,-1,0,207.75063)" d="M33.60625 153.70491H30.10625"/>
<path transform="matrix(1,0,0,-1,0,207.75063)" stroke-width=".8" stroke-linecap="butt" stroke-linejoin="round" fill="none" stroke="#000000" d="M33.60625 153.70491H30.10625"/>
<use data-text="6" xlink:href="#font_1_54" transform="matrix(9,0,0,-9,20.871876,57.46759)"/>
<path transform="matrix(1,0,0,-1,0,207.75063)" d="M33.60625 173.22396H30.10625"/>
<path transform="matrix(1,0,0,-1,0,207.75063)" stroke-width=".8" stroke-linecap="butt" stroke-linejoin="round" fill="none" stroke="#000000" d="M33.60625 173.22396H30.10625"/>
<use data-text="7" xlink:href="#font_1_55" transform="matrix(9,0,0,-9,20.871876,37.948549)"/>
<path transform="matrix(1,0,0,-1,0,207.75063)" d="M33.60625 192.74301H30.10625"/>
<path transform="matrix(1,0,0,-1,0,207.75063)" stroke-width=".8" stroke-linecap="butt" stroke-linejoin="round" fill="none" stroke="#000000" d="M33.60625 192.74301H30.10625"/>
<use data-text="8" xlink:href="#font_1_56" transform="matrix(9,0,0,-9,20.871876,18.42949)"/>
<use data-text="N" xlink:href="#font_1_78" transform="matrix(0,-10,-10,-0,14.79375,135.1175)"/>
<use data-text="u" xlink:href="#font_1_117" transform="matrix(0,-10,-10,-0,14.79375,127.63749)"/>
<use data-text="m" xlink:href="#font_1_109" transform="matrix(0,-10,-10,-0,14.79375,121.29749)"/>
<use data-text="b" xlink:href="#font_1_98" transform="matrix(0,-10,-10,-0,14.79375,111.557498)"/>
<use data-text="e" xlink:href="#font_1_101" transform="matrix(0,-10,-10,-0,14.79375,105.20749)"/>
<use data-text="r" xlink:href="#font_1_114" transform="matrix(0,-10,-10,-0,14.79375,99.057498)"/>
<use data-text=" " xlink:href="#font_1_32" transform="matrix(0,-10,-10,-0,14.79375,94.947498)"/>
<use data-text="i" xlink:href="#font_1_105" transform="matrix(0,-10,-10,-0,14.79375,91.76749)"/>
<use data-text="n" xlink:href="#font_1_110" transform="matrix(0,-10,-10,-0,14.79375,88.98749)"/>
<use data-text=" " xlink:href="#font_1_32" transform="matrix(0,-10,-10,-0,14.79375,82.64749)"/>
<use data-text="s" xlink:href="#font_1_115" transform="matrix(0,-10,-10,-0,14.79375,79.46749)"/>
<use data-text="y" xlink:href="#font_1_121" transform="matrix(0,-10,-10,-0,14.79375,74.25749)"/>
<use data-text="s" xlink:href="#font_1_115" transform="matrix(0,-10,-10,-0,14.79375,68.337497)"/>
<use data-text="t" xlink:href="#font_1_116" transform="matrix(0,-10,-10,-0,14.79375,63.127496)"/>
<use data-text="e" xlink:href="#font_1_101" transform="matrix(0,-10,-10,-0,14.79375,59.207498)"/>
<use data-text="m" xlink:href="#font_1_109" transform="matrix(0,-10,-10,-0,14.79375,53.057497)"/>
<path transform="matrix(1,0,0,-1,0,207.75063)" stroke-width=".8" stroke-linecap="square" stroke-miterlimit="10" stroke-linejoin="miter" fill="none" stroke="#000000" d="M33.60625 36.590627V200.55063"/>
<path transform="matrix(1,0,0,-1,0,207.75063)" stroke-width=".8" stroke-linecap="square" stroke-miterlimit="10" stroke-linejoin="miter" fill="none" stroke="#000000" d="M33.60625 36.590627H453.16627"/>
<g clip-path="url(#clip_2)">
<path transform="matrix(1,0,0,-1,0,207.75063)" stroke-width=".7" stroke-linecap="butt" stroke-dasharray=".7,1.155" stroke-linejoin="round" fill="none" stroke="#1565c0" stroke-opacity=".5" d="M61.77943 36.590627V200.55063"/>
</g>
<g clip-path="url(#clip_3)">
<path transform="matrix(1,0,0,-1,0,207.75063)" stroke-width=".7" stroke-linecap="butt" stroke-dasharray=".7,1.155" stroke-linejoin="round" fill="none" stroke="#c62828" stroke-opacity=".5" d="M152.32506 36.590627V200.55063"/>
</g>
<g clip-path="url(#clip_4)">
<path transform="matrix(1,0,0,-1,0,207.75063)" stroke-width=".9" stroke-linecap="square" stroke-linejoin="round" fill="none" stroke="#1565c0" stroke-opacity=".4" d="M71.39443 75.62872V75.62872H71.86608V56.109674H73.66027V36.590627"/>
</g>
<g clip-path="url(#clip_5)">
<path transform="matrix(1,0,0,-1,0,207.75063)" stroke-width=".9" stroke-linecap="square" stroke-linejoin="round" fill="none" stroke="#1565c0" stroke-opacity=".4" d="M67.72726 75.62872V75.62872H72.40384V95.147769H73.85178V114.66682H79.07717V95.147769H80.574398V114.66682H86.87591V134.18587H91.50559V114.66682"/>
</g>
<g clip-path="url(#clip_6)">
<path transform="matrix(1,0,0,-1,0,207.75063)" stroke-width=".9" stroke-linecap="square" stroke-linejoin="round" fill="none" stroke="#1565c0" stroke-opacity=".4" d="M63.043336 75.62872V75.62872H69.84623V95.147769H87.29046V75.62872H91.5525V95.147769H94.974887V114.66682H99.4772V95.147769"/>
</g>
<g clip-path="url(#clip_7)">
<path transform="matrix(1,0,0,-1,0,207.75063)" stroke-width=".9" stroke-linecap="square" stroke-linejoin="round" fill="none" stroke="#1565c0" stroke-opacity=".4" d="M74.59276 75.62872V75.62872H76.708278V95.147769H78.34844V114.66682H80.53886V134.18587H83.698978V153.70491H86.32683V134.18587H88.65736V153.70491H88.77678V173.22396H94.64952V153.70491"/>
</g>
<g clip-path="url(#clip_8)">
<path transform="matrix(1,0,0,-1,0,207.75063)" stroke-width=".9" stroke-linecap="square" stroke-linejoin="round" fill="none" stroke="#1565c0" stroke-opacity=".4" d="M64.72751 75.62872V75.62872H66.20054V95.147769H69.79964V75.62872H69.990947V56.109674"/>
</g>
<g clip-path="url(#clip_9)">
<path transform="matrix(1,0,0,-1,0,207.75063)" stroke-width=".9" stroke-linecap="square" stroke-linejoin="round" fill="none" stroke="#1565c0" stroke-opacity=".4" d="M65.26484 114.66682H75.87721V95.147769H80.58648V75.62872H89.72121V95.147769H90.426059V114.66682H90.75405V95.147769"/>
</g>
<g clip-path="url(#clip_10)">
<path transform="matrix(1,0,0,-1,0,207.75063)" stroke-width=".9" stroke-linecap="square" stroke-linejoin="round" fill="none" stroke="#1565c0" stroke-opacity=".4" d="M68.490489 114.66682H74.23366V95.147769H74.97584V114.66682H75.8672V95.147769H77.24683V75.62872"/>
</g>
<g clip-path="url(#clip_11)">
<path transform="matrix(1,0,0,-1,0,207.75063)" stroke-width=".9" stroke-linecap="square" stroke-linejoin="round" fill="none" stroke="#1565c0" stroke-opacity=".4" d="M65.08104 114.66682H68.17097V95.147769H71.4955V114.66682H77.55281V95.147769H80.884609V75.62872"/>
</g>
<g clip-path="url(#clip_12)">
<path transform="matrix(1,0,0,-1,0,207.75063)" stroke-width=".9" stroke-linecap="square" stroke-linejoin="round" fill="none" stroke="#c62828" stroke-opacity=".4" d="M157.20139 114.66682V114.66682H159.44205V95.147769H160.90503V114.66682H164.48537V134.18587H169.7327V114.66682H171.87512V95.147769H172.94202V75.62872"/>
</g>
<g clip-path="url(#clip_13)">
<path transform="matrix(1,0,0,-1,0,207.75063)" stroke-width=".9" stroke-linecap="square" stroke-linejoin="round" fill="none" stroke="#c62828" stroke-opacity=".4" d="M155.80821 153.70491H156.85237V134.18587H159.66889V114.66682H163.17107V134.18587H179.26541V114.66682H179.8576V134.18587H182.80623V153.70491H190.22008V134.18587H197.95098V114.66682"/>
</g>
<g clip-path="url(#clip_14)">
<path transform="matrix(1,0,0,-1,0,207.75063)" stroke-width=".9" stroke-linecap="square" stroke-linejoin="round" fill="none" stroke="#c62828" stroke-opacity=".4" d="M155.60079 114.66682V114.66682H158.59865V95.147769H174.09575V75.62872H174.82883V56.109674H175.47112V75.62872H181.61406V56.109674"/>
</g>
<g clip-path="url(#clip_15)">
<path transform="matrix(1,0,0,-1,0,207.75063)" stroke-width=".9" stroke-linecap="square" stroke-linejoin="round" fill="none" stroke="#c62828" stroke-opacity=".4" d="M163.45894 114.66682V114.66682H169.84244V134.18587H179.88523V114.66682H186.38205V134.18587H208.29393V153.70491H217.87657V134.18587H218.8823V114.66682H226.63999V134.18587H241.84088V114.66682"/>
</g>
<g clip-path="url(#clip_16)">
<path transform="matrix(1,0,0,-1,0,207.75063)" stroke-width=".9" stroke-linecap="square" stroke-linejoin="round" fill="none" stroke="#c62828" stroke-opacity=".4" d="M157.32134 153.70491H158.56324V173.22396H169.96439V192.74301H171.04634V173.22396H171.56395V153.70491H178.39806V173.22396H183.61634V153.70491H191.3757V134.18587H195.34296V153.70491H196.3556V173.22396H211.74597V192.74301H214.79514V173.22396"/>
</g>
<g clip-path="url(#clip_17)">
<path transform="matrix(1,0,0,-1,0,207.75063)" stroke-width=".9" stroke-linecap="square" stroke-linejoin="round" fill="none" stroke="#c62828" stroke-opacity=".4" d="M167.5788 153.70491H173.05066V134.18587H176.08284V153.70491H188.30626V134.18587H188.9377V114.66682H193.07199V95.147769H193.17617V75.62872"/>
</g>
<g clip-path="url(#clip_18)">
<path transform="matrix(1,0,0,-1,0,207.75063)" stroke-width=".9" stroke-linecap="square" stroke-linejoin="round" fill="none" stroke="#c62828" stroke-opacity=".4" d="M154.81659 114.66682V114.66682H155.83998V95.147769H159.63513V75.62872H165.62888V56.109674H174.96829V36.590627"/>
</g>
<g clip-path="url(#clip_19)">
<path transform="matrix(1,0,0,-1,0,207.75063)" stroke-width=".9" stroke-linecap="square" stroke-linejoin="round" fill="none" stroke="#c62828" stroke-opacity=".4" d="M154.61298 153.70491H155.21903V134.18587H159.61865V114.66682H160.17079V134.18587H161.75045V153.70491H167.95763V134.18587H174.20049V114.66682H178.04567V134.18587H181.65717V114.66682"/>
</g>
<g>
<path transform="matrix(1,0,0,-1,0,207.75063)" d="M39.55625 154.84438H130.69376C131.82709 154.84438 132.39376 155.41104 132.39376 156.54438V194.60063C132.39376 195.73397 131.82709 196.30063 130.69376 196.30063H39.55625C38.422918 196.30063 37.85625 195.73397 37.85625 194.60063V156.54438C37.85625 155.41104 38.422918 154.84438 39.55625 154.84438Z" fill="#ffffff" fill-opacity=".9"/>
<path transform="matrix(1,0,0,-1,0,207.75063)" stroke-width="1" stroke-linecap="butt" stroke-miterlimit="10" stroke-linejoin="miter" fill="none" stroke="#cccccc" stroke-opacity=".9" d="M39.55625 154.84438H130.69376C131.82709 154.84438 132.39376 155.41104 132.39376 156.54438V194.60063C132.39376 195.73397 131.82709 196.30063 130.69376 196.30063H39.55625C38.422918 196.30063 37.85625 195.73397 37.85625 194.60063V156.54438C37.85625 155.41104 38.422918 154.84438 39.55625 154.84438Z"/>
</g>
<path transform="matrix(1,0,0,-1,0,207.75063)" stroke-width="1.5" stroke-linecap="square" stroke-linejoin="round" fill="none" stroke="#000000" d="M41.25625 189.03188H49.75625 58.25625"/>
<use data-text="O" xlink:href="#font_1_79" transform="matrix(8.5,0,0,-8.5,65.05625,21.693757)"/>
<use data-text="u" xlink:href="#font_1_117" transform="matrix(8.5,0,0,-8.5,71.74575,21.693757)"/>
<use data-text="t" xlink:href="#font_1_116" transform="matrix(8.5,0,0,-8.5,77.13475,21.693757)"/>
<use data-text="e" xlink:href="#font_1_101" transform="matrix(8.5,0,0,-8.5,80.46675,21.693757)"/>
<use data-text="r" xlink:href="#font_1_114" transform="matrix(8.5,0,0,-8.5,85.69425,21.693757)"/>
<use data-text=" " xlink:href="#font_1_32" transform="matrix(8.5,0,0,-8.5,89.18775,21.693757)"/>
<use data-text="p" xlink:href="#font_1_112" transform="matrix(8.5,0,0,-8.5,91.89075,21.693757)"/>
<use data-text="a" xlink:href="#font_1_97" transform="matrix(8.5,0,0,-8.5,97.28825,21.693757)"/>
<use data-text="t" xlink:href="#font_1_116" transform="matrix(8.5,0,0,-8.5,102.49875,21.693757)"/>
<use data-text="h" xlink:href="#font_1_104" transform="matrix(8.5,0,0,-8.5,105.83075,21.693757)"/>
<path transform="matrix(1,0,0,-1,0,207.75063)" stroke-width="1.2" stroke-linecap="square" stroke-linejoin="round" fill="none" stroke="#1565c0" stroke-opacity=".6" d="M41.25625 176.06313H49.75625 58.25625"/>
<use data-text="I" xlink:href="#font_1_73" transform="matrix(8.5,0,0,-8.5,65.05625,34.662508)"/>
<use data-text="n" xlink:href="#font_1_110" transform="matrix(8.5,0,0,-8.5,67.56375,34.662508)"/>
<use data-text="n" xlink:href="#font_1_110" transform="matrix(8.5,0,0,-8.5,72.95275,34.662508)"/>
<use data-text="e" xlink:href="#font_1_101" transform="matrix(8.5,0,0,-8.5,78.34175,34.662508)"/>
<use data-text="r" xlink:href="#font_1_114" transform="matrix(8.5,0,0,-8.5,83.56925,34.662508)"/>
<use data-text=" " xlink:href="#font_1_32" transform="matrix(8.5,0,0,-8.5,87.06275,34.662508)"/>
<use data-text="b" xlink:href="#font_1_98" transform="matrix(8.5,0,0,-8.5,89.76575,34.662508)"/>
<use data-text="r" xlink:href="#font_1_114" transform="matrix(8.5,0,0,-8.5,95.16325,34.662508)"/>
<use data-text="a" xlink:href="#font_1_97" transform="matrix(8.5,0,0,-8.5,98.65675,34.662508)"/>
<use data-text="n" xlink:href="#font_1_110" transform="matrix(8.5,0,0,-8.5,103.86725,34.662508)"/>
<use data-text="c" xlink:href="#font_1_99" transform="matrix(8.5,0,0,-8.5,109.256259,34.662508)"/>
<use data-text="h" xlink:href="#font_1_104" transform="matrix(8.5,0,0,-8.5,113.93125,34.662508)"/>
<use data-text="e" xlink:href="#font_1_101" transform="matrix(8.5,0,0,-8.5,119.32025,34.662508)"/>
<use data-text="s" xlink:href="#font_1_115" transform="matrix(8.5,0,0,-8.5,124.54775,34.662508)"/>
<path transform="matrix(1,0,0,-1,0,207.75063)" stroke-width="1.5" stroke-linecap="square" stroke-linejoin="round" fill="none" stroke="#ffffff" d="M41.25625 163.09438H49.75625 58.25625"/>
<path transform="matrix(1,0,0,-1,0,207.75063)" d="M49.75625 159.59438C50.68446 159.59438 51.57478 159.96315 52.231126 160.6195 52.887468 161.27585 53.25625 162.16617 53.25625 163.09438 53.25625 164.02259 52.887468 164.9129 52.231126 165.56925 51.57478 166.22559 50.68446 166.59438 49.75625 166.59438 48.828039 166.59438 47.93772 166.22559 47.281377 165.56925 46.62503 164.9129 46.25625 164.02259 46.25625 163.09438 46.25625 162.16617 46.62503 161.27585 47.281377 160.6195 47.93772 159.96315 48.828039 159.59438 49.75625 159.59438Z" fill="#1565c0"/>
<path transform="matrix(1,0,0,-1,0,207.75063)" stroke-width="1" stroke-linecap="butt" stroke-linejoin="round" fill="none" stroke="#ffffff" d="M49.75625 159.59438C50.68446 159.59438 51.57478 159.96315 52.231126 160.6195 52.887468 161.27585 53.25625 162.16617 53.25625 163.09438 53.25625 164.02259 52.887468 164.9129 52.231126 165.56925 51.57478 166.22559 50.68446 166.59438 49.75625 166.59438 48.828039 166.59438 47.93772 166.22559 47.281377 165.56925 46.62503 164.9129 46.25625 164.02259 46.25625 163.09438 46.25625 162.16617 46.62503 161.27585 47.281377 160.6195 47.93772 159.96315 48.828039 159.59438 49.75625 159.59438Z"/>
<use data-text="T" xlink:href="#font_1_84" transform="matrix(8.5,0,0,-8.5,65.05625,47.631258)"/>
<use data-text="r" xlink:href="#font_1_114" transform="matrix(8.5,0,0,-8.5,68.99975,47.631258)"/>
<use data-text="i" xlink:href="#font_1_105" transform="matrix(8.5,0,0,-8.5,72.493259,47.631258)"/>
<use data-text="g" xlink:href="#font_1_103" transform="matrix(8.5,0,0,-8.5,74.856258,47.631258)"/>
<use data-text="g" xlink:href="#font_1_103" transform="matrix(8.5,0,0,-8.5,80.25375,47.631258)"/>
<use data-text="e" xlink:href="#font_1_101" transform="matrix(8.5,0,0,-8.5,85.65125,47.631258)"/>
<use data-text="r" xlink:href="#font_1_114" transform="matrix(8.5,0,0,-8.5,90.87875,47.631258)"/>
<use data-text=" " xlink:href="#font_1_32" transform="matrix(8.5,0,0,-8.5,94.37225,47.631258)"/>
<use data-text="p" xlink:href="#font_1_112" transform="matrix(8.5,0,0,-8.5,97.07526,47.631258)"/>
<use data-text="o" xlink:href="#font_1_111" transform="matrix(8.5,0,0,-8.5,102.47275,47.631258)"/>
<use data-text="i" xlink:href="#font_1_105" transform="matrix(8.5,0,0,-8.5,107.67475,47.631258)"/>
<use data-text="n" xlink:href="#font_1_110" transform="matrix(8.5,0,0,-8.5,110.03775,47.631258)"/>
<use data-text="t" xlink:href="#font_1_116" transform="matrix(8.5,0,0,-8.5,115.42675,47.631258)"/>
<g clip-path="url(#clip_20)">
<path transform="matrix(1,0,0,-1,0,207.75063)" stroke-width="1.5" stroke-linecap="square" stroke-linejoin="round" fill="none" stroke="#000000" d="M45.018957 56.109674H45.30234V75.62872H47.71777V56.109674H48.128347V75.62872H58.90821V56.109674H60.761835V75.62872H61.77943V95.147769H67.91112V114.66682H68.249568V134.18587H71.009899V153.70491H77.59783V134.18587H77.82351V114.66682H78.88549V134.18587H79.68377V114.66682H86.290409V95.147769H88.380039V75.62872H90.62749V95.147769H95.846599L95.901309 56.109674H109.174709V75.62872H109.6542V56.109674H113.14406V36.590627H122.5759V56.109674H124.46656V75.62872H129.05788V95.147769H130.14687V114.66682H131.28491V134.18587H149.02095V114.66682H152.32506V134.18587H156.78827V114.66682H167.76682V95.147769H170.73792V114.66682H174.2143V95.147769H178.20578V75.62872H184.94435V56.109674H199.78386V36.590627H211.1971V56.109674H221.97919V75.62872H227.79808V56.109674H231.6147V75.62872H232.13951V95.147769H235.03324V114.66682H238.02973V95.147769H238.7275V75.62872H238.85547V95.147769H240.04673V114.66682H240.95113V95.147769H243.69068V114.66682H248.76865V134.18587H249.42401V114.66682H251.39678V95.147769H253.94124V114.66682L254.00292 95.147769H262.7652V75.62872H270.64778V56.109674H272.2228V36.590627H284.81138V56.109674H286.30848V36.590627H299.4244V56.109674H304.763V75.62872H316.19349V95.147769H325.30155V114.66682H337.6766V95.147769H338.21235V114.66682H353.20509V95.147769H354.9512V114.66682H355.31626V134.18587L355.38789 114.66682H358.00276V95.147769H359.55659V114.66682H359.99119V95.147769"/>
</g>
<g clip-path="url(#clip_21)">
<path transform="matrix(1,0,0,-1,0,207.75063)" d="M61.77943 91.147769C62.840246 91.147769 63.857755 91.56924 64.60786 92.31934 65.35796 93.06945 65.779438 94.08695 65.779438 95.147769 65.779438 96.20858 65.35796 97.22609 64.60786 97.9762 63.857755 98.7263 62.840246 99.147769 61.77943 99.147769 60.71862 99.147769 59.701116 98.7263 58.951005 97.9762 58.200899 97.22609 57.77943 96.20858 57.77943 95.147769 57.77943 94.08695 58.200899 93.06945 58.951005 92.31934 59.701116 91.56924 60.71862 91.147769 61.77943 91.147769Z" fill="#1565c0"/>
<path transform="matrix(1,0,0,-1,0,207.75063)" stroke-width="1.2" stroke-linecap="butt" stroke-linejoin="round" fill="none" stroke="#ffffff" d="M61.77943 91.147769C62.840246 91.147769 63.857755 91.56924 64.60786 92.31934 65.35796 93.06945 65.779438 94.08695 65.779438 95.147769 65.779438 96.20858 65.35796 97.22609 64.60786 97.9762 63.857755 98.7263 62.840246 99.147769 61.77943 99.147769 60.71862 99.147769 59.701116 98.7263 58.951005 97.9762 58.200899 97.22609 57.77943 96.20858 57.77943 95.147769 57.77943 94.08695 58.200899 93.06945 58.951005 92.31934 59.701116 91.56924 60.71862 91.147769 61.77943 91.147769Z"/>
</g>
<g clip-path="url(#clip_22)">
<path transform="matrix(1,0,0,-1,0,207.75063)" d="M152.32506 130.18587C153.38587 130.18587 154.40338 130.60733 155.15349 131.35744 155.9036 132.10755 156.32506 133.12505 156.32506 134.18587 156.32506 135.24668 155.9036 136.26418 155.15349 137.0143 154.40338 137.7644 153.38587 138.18587 152.32506 138.18587 151.26424 138.18587 150.24674 137.7644 149.49663 137.0143 148.74652 136.26418 148.32506 135.24668 148.32506 134.18587 148.32506 133.12505 148.74652 132.10755 149.49663 131.35744 150.24674 130.60733 151.26424 130.18587 152.32506 130.18587Z" fill="#c62828"/>
<path transform="matrix(1,0,0,-1,0,207.75063)" stroke-width="1.2" stroke-linecap="butt" stroke-linejoin="round" fill="none" stroke="#ffffff" d="M152.32506 130.18587C153.38587 130.18587 154.40338 130.60733 155.15349 131.35744 155.9036 132.10755 156.32506 133.12505 156.32506 134.18587 156.32506 135.24668 155.9036 136.26418 155.15349 137.0143 154.40338 137.7644 153.38587 138.18587 152.32506 138.18587 151.26424 138.18587 150.24674 137.7644 149.49663 137.0143 148.74652 136.26418 148.32506 135.24668 148.32506 134.18587 148.32506 133.12505 148.74652 132.10755 149.49663 131.35744 150.24674 130.60733 151.26424 130.18587 152.32506 130.18587Z"/>
</g>
</svg>
