<?xml version="1.0" encoding="utf-8" standalone="no"?>
<!DOCTYPE svg PUBLIC "-//W3C//DTD SVG 1.1//EN"
  "http://www.w3.org/Graphics/SVG/1.1/DTD/svg11.dtd">
<svg xmlns:xlink="http://www.w3.org/1999/xlink" width="653.88875pt" height="271.851875pt" viewBox="0 0 653.88875 271.851875" xmlns="http://www.w3.org/2000/svg" version="1.1">
 <metadata>
  <rdf:RDF xmlns:dc="http://purl.org/dc/elements/1.1/" xmlns:cc="http://creativecommons.org/ns#" xmlns:rdf="http://www.w3.org/1999/02/22-rdf-syntax-ns#">
   <cc:Work>
    <dc:type rdf:resource="http://purl.org/dc/dcmitype/StillImage"/>
    <dc:date>2026-06-23T09:49:01.951463</dc:date>
    <dc:format>image/svg+xml</dc:format>
    <dc:creator>
     <cc:Agent>
      <dc:title>Matplotlib v3.10.7, https://matplotlib.org/</dc:title>
     </cc:Agent>
    </dc:creator>
   </cc:Work>
  </rdf:RDF>
 </metadata>
 <defs>
  <style type="text/css">*{stroke-linejoin: round; stroke-linecap: butt}</style>
 </defs>
 <g id="figure_1">
  <g id="patch_1">
   <path d="M 0 271.851875 
L 653.88875 271.851875 
L 653.88875 0 
L 0 0 
z
" style="fill: #ffffff"/>
  </g>
  <g id="axes_1">
   <g id="patch_2">
    <path d="M 42.53875 232.36 
L 646.68875 232.36 
L 646.68875 7.2 
L 42.53875 7.2 
z
" style="fill: #ffffff"/>
   </g>
   <g id="matplotlib.axis_1">
    <g id="xtick_1">
     <g id="line2d_1">
      <defs>
       <path id="m4ccddf6b7f" d="M 0 0 
L 0 3.5 
" style="stroke: #000000; stroke-width: 0.8"/>
      </defs>
      <g>
       <use xlink:href="#m4ccddf6b7f" x="42.53875" y="232.36" style="stroke: #000000; stroke-width: 0.8"/>
      </g>
     </g>
     <g id="text_1">
      <!-- 0 -->
      <g transform="translate(39.3575 246.958438) scale(0.1 -0.1)">
       <defs>
        <path id="DejaVuSans-30" d="M 2034 4250 
Q 1547 4250 1301 3770 
Q 1056 3291 1056 2328 
Q 1056 1369 1301 889 
Q 1547 409 2034 409 
Q 2525 409 2770 889 
Q 3016 1369 3016 2328 
Q 3016 3291 2770 3770 
Q 2525 4250 2034 4250 
z
M 2034 4750 
Q 2819 4750 3233 4129 
Q 3647 3509 3647 2328 
Q 3647 1150 3233 529 
Q 2819 -91 2034 -91 
Q 1250 -91 836 529 
Q 422 1150 422 2328 
Q 422 3509 836 4129 
Q 1250 4750 2034 4750 
z
" transform="scale(0.015625)"/>
       </defs>
       <use xlink:href="#DejaVuSans-30"/>
      </g>
     </g>
    </g>
    <g id="xtick_2">
     <g id="line2d_2">
      <g>
       <use xlink:href="#m4ccddf6b7f" x="161.078274" y="232.36" style="stroke: #000000; stroke-width: 0.8"/>
      </g>
     </g>
     <g id="text_2">
      <!-- 2 -->
      <g transform="translate(157.897024 246.958438) scale(0.1 -0.1)">
       <defs>
        <path id="DejaVuSans-32" d="M 1228 531 
L 3431 531 
L 3431 0 
L 469 0 
L 469 531 
Q 828 903 1448 1529 
Q 2069 2156 2228 2338 
Q 2531 2678 2651 2914 
Q 2772 3150 2772 3378 
Q 2772 3750 2511 3984 
Q 2250 4219 1831 4219 
Q 1534 4219 1204 4116 
Q 875 4013 500 3803 
L 500 4441 
Q 881 4594 1212 4672 
Q 1544 4750 1819 4750 
Q 2544 4750 2975 4387 
Q 3406 4025 3406 3419 
Q 3406 3131 3298 2873 
Q 3191 2616 2906 2266 
Q 2828 2175 2409 1742 
Q 1991 1309 1228 531 
z
" transform="scale(0.015625)"/>
       </defs>
       <use xlink:href="#DejaVuSans-32"/>
      </g>
     </g>
    </g>
    <g id="xtick_3">
     <g id="line2d_3">
      <g>
       <use xlink:href="#m4ccddf6b7f" x="279.617798" y="232.36" style="stroke: #000000; stroke-width: 0.8"/>
      </g>
     </g>
     <g id="text_3">
      <!-- 4 -->
      <g transform="translate(276.436548 246.958438) scale(0.1 -0.1)">
       <defs>
        <path id="DejaVuSans-34" d="M 2419 4116 
L 825 1625 
L 2419 1625 
L 2419 4116 
z
M 2253 4666 
L 3047 4666 
L 3047 1625 
L 3713 1625 
L 3713 1100 
L 3047 1100 
L 3047 0 
L 2419 0 
L 2419 1100 
L 313 1100 
L 313 1709 
L 2253 4666 
z
" transform="scale(0.015625)"/>
       </defs>
       <use xlink:href="#DejaVuSans-34"/>
      </g>
     </g>
    </g>
    <g id="xtick_4">
     <g id="line2d_4">
      <g>
       <use xlink:href="#m4ccddf6b7f" x="398.157323" y="232.36" style="stroke: #000000; stroke-width: 0.8"/>
      </g>
     </g>
     <g id="text_4">
      <!-- 6 -->
      <g transform="translate(394.976073 246.958438) scale(0.1 -0.1)">
       <defs>
        <path id="DejaVuSans-36" d="M 2113 2584 
Q 1688 2584 1439 2293 
Q 1191 2003 1191 1497 
Q 1191 994 1439 701 
Q 1688 409 2113 409 
Q 2538 409 2786 701 
Q 3034 994 3034 1497 
Q 3034 2003 2786 2293 
Q 2538 2584 2113 2584 
z
M 3366 4563 
L 3366 3988 
Q 3128 4100 2886 4159 
Q 2644 4219 2406 4219 
Q 1781 4219 1451 3797 
Q 1122 3375 1075 2522 
Q 1259 2794 1537 2939 
Q 1816 3084 2150 3084 
Q 2853 3084 3261 2657 
Q 3669 2231 3669 1497 
Q 3669 778 3244 343 
Q 2819 -91 2113 -91 
Q 1303 -91 875 529 
Q 447 1150 447 2328 
Q 447 3434 972 4092 
Q 1497 4750 2381 4750 
Q 2619 4750 2861 4703 
Q 3103 4656 3366 4563 
z
" transform="scale(0.015625)"/>
       </defs>
       <use xlink:href="#DejaVuSans-36"/>
      </g>
     </g>
    </g>
    <g id="xtick_5">
     <g id="line2d_5">
      <g>
       <use xlink:href="#m4ccddf6b7f" x="516.696847" y="232.36" style="stroke: #000000; stroke-width: 0.8"/>
      </g>
     </g>
     <g id="text_5">
      <!-- 8 -->
      <g transform="translate(513.515597 246.958438) scale(0.1 -0.1)">
       <defs>
        <path id="DejaVuSans-38" d="M 2034 2216 
Q 1584 2216 1326 1975 
Q 1069 1734 1069 1313 
Q 1069 891 1326 650 
Q 1584 409 2034 409 
Q 2484 409 2743 651 
Q 3003 894 3003 1313 
Q 3003 1734 2745 1975 
Q 2488 2216 2034 2216 
z
M 1403 2484 
Q 997 2584 770 2862 
Q 544 3141 544 3541 
Q 544 4100 942 4425 
Q 1341 4750 2034 4750 
Q 2731 4750 3128 4425 
Q 3525 4100 3525 3541 
Q 3525 3141 3298 2862 
Q 3072 2584 2669 2484 
Q 3125 2378 3379 2068 
Q 3634 1759 3634 1313 
Q 3634 634 3220 271 
Q 2806 -91 2034 -91 
Q 1263 -91 848 271 
Q 434 634 434 1313 
Q 434 1759 690 2068 
Q 947 2378 1403 2484 
z
M 1172 3481 
Q 1172 3119 1398 2916 
Q 1625 2713 2034 2713 
Q 2441 2713 2670 2916 
Q 2900 3119 2900 3481 
Q 2900 3844 2670 4047 
Q 2441 4250 2034 4250 
Q 1625 4250 1398 4047 
Q 1172 3844 1172 3481 
z
" transform="scale(0.015625)"/>
       </defs>
       <use xlink:href="#DejaVuSans-38"/>
      </g>
     </g>
    </g>
    <g id="xtick_6">
     <g id="line2d_6">
      <g>
       <use xlink:href="#m4ccddf6b7f" x="635.236371" y="232.36" style="stroke: #000000; stroke-width: 0.8"/>
      </g>
     </g>
     <g id="text_6">
      <!-- 10 -->
      <g transform="translate(628.873871 246.958438) scale(0.1 -0.1)">
       <defs>
        <path id="DejaVuSans-31" d="M 794 531 
L 1825 531 
L 1825 4091 
L 703 3866 
L 703 4441 
L 1819 4666 
L 2450 4666 
L 2450 531 
L 3481 531 
L 3481 0 
L 794 0 
L 794 531 
z
" transform="scale(0.015625)"/>
       </defs>
       <use xlink:href="#DejaVuSans-31"/>
       <use xlink:href="#DejaVuSans-30" transform="translate(63.623047 0)"/>
      </g>
     </g>
    </g>
    <g id="text_7">
     <!-- Simulation time -->
     <g transform="translate(297.192187 262.15625) scale(0.12 -0.12)">
      <defs>
       <path id="DejaVuSans-53" d="M 3425 4513 
L 3425 3897 
Q 3066 4069 2747 4153 
Q 2428 4238 2131 4238 
Q 1616 4238 1336 4038 
Q 1056 3838 1056 3469 
Q 1056 3159 1242 3001 
Q 1428 2844 1947 2747 
L 2328 2669 
Q 3034 2534 3370 2195 
Q 3706 1856 3706 1288 
Q 3706 609 3251 259 
Q 2797 -91 1919 -91 
Q 1588 -91 1214 -16 
Q 841 59 441 206 
L 441 856 
Q 825 641 1194 531 
Q 1563 422 1919 422 
Q 2459 422 2753 634 
Q 3047 847 3047 1241 
Q 3047 1584 2836 1778 
Q 2625 1972 2144 2069 
L 1759 2144 
Q 1053 2284 737 2584 
Q 422 2884 422 3419 
Q 422 4038 858 4394 
Q 1294 4750 2059 4750 
Q 2388 4750 2728 4690 
Q 3069 4631 3425 4513 
z
" transform="scale(0.015625)"/>
       <path id="DejaVuSans-69" d="M 603 3500 
L 1178 3500 
L 1178 0 
L 603 0 
L 603 3500 
z
M 603 4863 
L 1178 4863 
L 1178 4134 
L 603 4134 
L 603 4863 
z
" transform="scale(0.015625)"/>
       <path id="DejaVuSans-6d" d="M 3328 2828 
Q 3544 3216 3844 3400 
Q 4144 3584 4550 3584 
Q 5097 3584 5394 3201 
Q 5691 2819 5691 2113 
L 5691 0 
L 5113 0 
L 5113 2094 
Q 5113 2597 4934 2840 
Q 4756 3084 4391 3084 
Q 3944 3084 3684 2787 
Q 3425 2491 3425 1978 
L 3425 0 
L 2847 0 
L 2847 2094 
Q 2847 2600 2669 2842 
Q 2491 3084 2119 3084 
Q 1678 3084 1418 2786 
Q 1159 2488 1159 1978 
L 1159 0 
L 581 0 
L 581 3500 
L 1159 3500 
L 1159 2956 
Q 1356 3278 1631 3431 
Q 1906 3584 2284 3584 
Q 2666 3584 2933 3390 
Q 3200 3197 3328 2828 
z
" transform="scale(0.015625)"/>
       <path id="DejaVuSans-75" d="M 544 1381 
L 544 3500 
L 1119 3500 
L 1119 1403 
Q 1119 906 1312 657 
Q 1506 409 1894 409 
Q 2359 409 2629 706 
Q 2900 1003 2900 1516 
L 2900 3500 
L 3475 3500 
L 3475 0 
L 2900 0 
L 2900 538 
Q 2691 219 2414 64 
Q 2138 -91 1772 -91 
Q 1169 -91 856 284 
Q 544 659 544 1381 
z
M 1991 3584 
L 1991 3584 
z
" transform="scale(0.015625)"/>
       <path id="DejaVuSans-6c" d="M 603 4863 
L 1178 4863 
L 1178 0 
L 603 0 
L 603 4863 
z
" transform="scale(0.015625)"/>
       <path id="DejaVuSans-61" d="M 2194 1759 
Q 1497 1759 1228 1600 
Q 959 1441 959 1056 
Q 959 750 1161 570 
Q 1363 391 1709 391 
Q 2188 391 2477 730 
Q 2766 1069 2766 1631 
L 2766 1759 
L 2194 1759 
z
M 3341 1997 
L 3341 0 
L 2766 0 
L 2766 531 
Q 2569 213 2275 61 
Q 1981 -91 1556 -91 
Q 1019 -91 701 211 
Q 384 513 384 1019 
Q 384 1609 779 1909 
Q 1175 2209 1959 2209 
L 2766 2209 
L 2766 2266 
Q 2766 2663 2505 2880 
Q 2244 3097 1772 3097 
Q 1472 3097 1187 3025 
Q 903 2953 641 2809 
L 641 3341 
Q 956 3463 1253 3523 
Q 1550 3584 1831 3584 
Q 2591 3584 2966 3190 
Q 3341 2797 3341 1997 
z
" transform="scale(0.015625)"/>
       <path id="DejaVuSans-74" d="M 1172 4494 
L 1172 3500 
L 2356 3500 
L 2356 3053 
L 1172 3053 
L 1172 1153 
Q 1172 725 1289 603 
Q 1406 481 1766 481 
L 2356 481 
L 2356 0 
L 1766 0 
Q 1100 0 847 248 
Q 594 497 594 1153 
L 594 3053 
L 172 3053 
L 172 3500 
L 594 3500 
L 594 4494 
L 1172 4494 
z
" transform="scale(0.015625)"/>
       <path id="DejaVuSans-6f" d="M 1959 3097 
Q 1497 3097 1228 2736 
Q 959 2375 959 1747 
Q 959 1119 1226 758 
Q 1494 397 1959 397 
Q 2419 397 2687 759 
Q 2956 1122 2956 1747 
Q 2956 2369 2687 2733 
Q 2419 3097 1959 3097 
z
M 1959 3584 
Q 2709 3584 3137 3096 
Q 3566 2609 3566 1747 
Q 3566 888 3137 398 
Q 2709 -91 1959 -91 
Q 1206 -91 779 398 
Q 353 888 353 1747 
Q 353 2609 779 3096 
Q 1206 3584 1959 3584 
z
" transform="scale(0.015625)"/>
       <path id="DejaVuSans-6e" d="M 3513 2113 
L 3513 0 
L 2938 0 
L 2938 2094 
Q 2938 2591 2744 2837 
Q 2550 3084 2163 3084 
Q 1697 3084 1428 2787 
Q 1159 2491 1159 1978 
L 1159 0 
L 581 0 
L 581 3500 
L 1159 3500 
L 1159 2956 
Q 1366 3272 1645 3428 
Q 1925 3584 2291 3584 
Q 2894 3584 3203 3211 
Q 3513 2838 3513 2113 
z
" transform="scale(0.015625)"/>
       <path id="DejaVuSans-20" transform="scale(0.015625)"/>
       <path id="DejaVuSans-65" d="M 3597 1894 
L 3597 1613 
L 953 1613 
Q 991 1019 1311 708 
Q 1631 397 2203 397 
Q 2534 397 2845 478 
Q 3156 559 3463 722 
L 3463 178 
Q 3153 47 2828 -22 
Q 2503 -91 2169 -91 
Q 1331 -91 842 396 
Q 353 884 353 1716 
Q 353 2575 817 3079 
Q 1281 3584 2069 3584 
Q 2775 3584 3186 3129 
Q 3597 2675 3597 1894 
z
M 3022 2063 
Q 3016 2534 2758 2815 
Q 2500 3097 2075 3097 
Q 1594 3097 1305 2825 
Q 1016 2553 972 2059 
L 3022 2063 
z
" transform="scale(0.015625)"/>
      </defs>
      <use xlink:href="#DejaVuSans-53"/>
      <use xlink:href="#DejaVuSans-69" transform="translate(63.476562 0)"/>
      <use xlink:href="#DejaVuSans-6d" transform="translate(91.259766 0)"/>
      <use xlink:href="#DejaVuSans-75" transform="translate(188.671875 0)"/>
      <use xlink:href="#DejaVuSans-6c" transform="translate(252.050781 0)"/>
      <use xlink:href="#DejaVuSans-61" transform="translate(279.833984 0)"/>
      <use xlink:href="#DejaVuSans-74" transform="translate(341.113281 0)"/>
      <use xlink:href="#DejaVuSans-69" transform="translate(380.322266 0)"/>
      <use xlink:href="#DejaVuSans-6f" transform="translate(408.105469 0)"/>
      <use xlink:href="#DejaVuSans-6e" transform="translate(469.287109 0)"/>
      <use xlink:href="#DejaVuSans-20" transform="translate(532.666016 0)"/>
      <use xlink:href="#DejaVuSans-74" transform="translate(564.453125 0)"/>
      <use xlink:href="#DejaVuSans-69" transform="translate(603.662109 0)"/>
      <use xlink:href="#DejaVuSans-6d" transform="translate(631.445312 0)"/>
      <use xlink:href="#DejaVuSans-65" transform="translate(728.857422 0)"/>
     </g>
    </g>
   </g>
   <g id="matplotlib.axis_2">
    <g id="ytick_1">
     <g id="line2d_7">
      <defs>
       <path id="mfa9b6a5230" d="M 0 0 
L -3.5 0 
" style="stroke: #000000; stroke-width: 0.8"/>
      </defs>
      <g>
       <use xlink:href="#mfa9b6a5230" x="42.53875" y="232.36" style="stroke: #000000; stroke-width: 0.8"/>
      </g>
     </g>
     <g id="text_8">
      <!-- 0 -->
      <g transform="translate(29.17625 236.159219) scale(0.1 -0.1)">
       <use xlink:href="#DejaVuSans-30"/>
      </g>
     </g>
    </g>
    <g id="ytick_2">
     <g id="line2d_8">
      <g>
       <use xlink:href="#mfa9b6a5230" x="42.53875" y="196.620317" style="stroke: #000000; stroke-width: 0.8"/>
      </g>
     </g>
     <g id="text_9">
      <!-- 2 -->
      <g transform="translate(29.17625 200.419536) scale(0.1 -0.1)">
       <use xlink:href="#DejaVuSans-32"/>
      </g>
     </g>
    </g>
    <g id="ytick_3">
     <g id="line2d_9">
      <g>
       <use xlink:href="#mfa9b6a5230" x="42.53875" y="160.880635" style="stroke: #000000; stroke-width: 0.8"/>
      </g>
     </g>
     <g id="text_10">
      <!-- 4 -->
      <g transform="translate(29.17625 164.679854) scale(0.1 -0.1)">
       <use xlink:href="#DejaVuSans-34"/>
      </g>
     </g>
    </g>
    <g id="ytick_4">
     <g id="line2d_10">
      <g>
       <use xlink:href="#mfa9b6a5230" x="42.53875" y="125.140952" style="stroke: #000000; stroke-width: 0.8"/>
      </g>
     </g>
     <g id="text_11">
      <!-- 6 -->
      <g transform="translate(29.17625 128.940171) scale(0.1 -0.1)">
       <use xlink:href="#DejaVuSans-36"/>
      </g>
     </g>
    </g>
    <g id="ytick_5">
     <g id="line2d_11">
      <g>
       <use xlink:href="#mfa9b6a5230" x="42.53875" y="89.40127" style="stroke: #000000; stroke-width: 0.8"/>
      </g>
     </g>
     <g id="text_12">
      <!-- 8 -->
      <g transform="translate(29.17625 93.200489) scale(0.1 -0.1)">
       <use xlink:href="#DejaVuSans-38"/>
      </g>
     </g>
    </g>
    <g id="ytick_6">
     <g id="line2d_12">
      <g>
       <use xlink:href="#mfa9b6a5230" x="42.53875" y="53.661587" style="stroke: #000000; stroke-width: 0.8"/>
      </g>
     </g>
     <g id="text_13">
      <!-- 10 -->
      <g transform="translate(22.81375 57.460806) scale(0.1 -0.1)">
       <use xlink:href="#DejaVuSans-31"/>
       <use xlink:href="#DejaVuSans-30" transform="translate(63.623047 0)"/>
      </g>
     </g>
    </g>
    <g id="ytick_7">
     <g id="line2d_13">
      <g>
       <use xlink:href="#mfa9b6a5230" x="42.53875" y="17.921905" style="stroke: #000000; stroke-width: 0.8"/>
      </g>
     </g>
     <g id="text_14">
      <!-- 12 -->
      <g transform="translate(22.81375 21.721124) scale(0.1 -0.1)">
       <use xlink:href="#DejaVuSans-31"/>
       <use xlink:href="#DejaVuSans-32" transform="translate(63.623047 0)"/>
      </g>
     </g>
    </g>
    <g id="text_15">
     <!-- Number in system -->
     <g transform="translate(16.318125 174.857188) rotate(-90) scale(0.12 -0.12)">
      <defs>
       <path id="DejaVuSans-4e" d="M 628 4666 
L 1478 4666 
L 3547 763 
L 3547 4666 
L 4159 4666 
L 4159 0 
L 3309 0 
L 1241 3903 
L 1241 0 
L 628 0 
L 628 4666 
z
" transform="scale(0.015625)"/>
       <path id="DejaVuSans-62" d="M 3116 1747 
Q 3116 2381 2855 2742 
Q 2594 3103 2138 3103 
Q 1681 3103 1420 2742 
Q 1159 2381 1159 1747 
Q 1159 1113 1420 752 
Q 1681 391 2138 391 
Q 2594 391 2855 752 
Q 3116 1113 3116 1747 
z
M 1159 2969 
Q 1341 3281 1617 3432 
Q 1894 3584 2278 3584 
Q 2916 3584 3314 3078 
Q 3713 2572 3713 1747 
Q 3713 922 3314 415 
Q 2916 -91 2278 -91 
Q 1894 -91 1617 61 
Q 1341 213 1159 525 
L 1159 0 
L 581 0 
L 581 4863 
L 1159 4863 
L 1159 2969 
z
" transform="scale(0.015625)"/>
       <path id="DejaVuSans-72" d="M 2631 2963 
Q 2534 3019 2420 3045 
Q 2306 3072 2169 3072 
Q 1681 3072 1420 2755 
Q 1159 2438 1159 1844 
L 1159 0 
L 581 0 
L 581 3500 
L 1159 3500 
L 1159 2956 
Q 1341 3275 1631 3429 
Q 1922 3584 2338 3584 
Q 2397 3584 2469 3576 
Q 2541 3569 2628 3553 
L 2631 2963 
z
" transform="scale(0.015625)"/>
       <path id="DejaVuSans-73" d="M 2834 3397 
L 2834 2853 
Q 2591 2978 2328 3040 
Q 2066 3103 1784 3103 
Q 1356 3103 1142 2972 
Q 928 2841 928 2578 
Q 928 2378 1081 2264 
Q 1234 2150 1697 2047 
L 1894 2003 
Q 2506 1872 2764 1633 
Q 3022 1394 3022 966 
Q 3022 478 2636 193 
Q 2250 -91 1575 -91 
Q 1294 -91 989 -36 
Q 684 19 347 128 
L 347 722 
Q 666 556 975 473 
Q 1284 391 1588 391 
Q 1994 391 2212 530 
Q 2431 669 2431 922 
Q 2431 1156 2273 1281 
Q 2116 1406 1581 1522 
L 1381 1569 
Q 847 1681 609 1914 
Q 372 2147 372 2553 
Q 372 3047 722 3315 
Q 1072 3584 1716 3584 
Q 2034 3584 2315 3537 
Q 2597 3491 2834 3397 
z
" transform="scale(0.015625)"/>
       <path id="DejaVuSans-79" d="M 2059 -325 
Q 1816 -950 1584 -1140 
Q 1353 -1331 966 -1331 
L 506 -1331 
L 506 -850 
L 844 -850 
Q 1081 -850 1212 -737 
Q 1344 -625 1503 -206 
L 1606 56 
L 191 3500 
L 800 3500 
L 1894 763 
L 2988 3500 
L 3597 3500 
L 2059 -325 
z
" transform="scale(0.015625)"/>
      </defs>
      <use xlink:href="#DejaVuSans-4e"/>
      <use xlink:href="#DejaVuSans-75" transform="translate(74.804688 0)"/>
      <use xlink:href="#DejaVuSans-6d" transform="translate(138.183594 0)"/>
      <use xlink:href="#DejaVuSans-62" transform="translate(235.595703 0)"/>
      <use xlink:href="#DejaVuSans-65" transform="translate(299.072266 0)"/>
      <use xlink:href="#DejaVuSans-72" transform="translate(360.595703 0)"/>
      <use xlink:href="#DejaVuSans-20" transform="translate(401.708984 0)"/>
      <use xlink:href="#DejaVuSans-69" transform="translate(433.496094 0)"/>
      <use xlink:href="#DejaVuSans-6e" transform="translate(461.279297 0)"/>
      <use xlink:href="#DejaVuSans-20" transform="translate(524.658203 0)"/>
      <use xlink:href="#DejaVuSans-73" transform="translate(556.445312 0)"/>
      <use xlink:href="#DejaVuSans-79" transform="translate(608.544922 0)"/>
      <use xlink:href="#DejaVuSans-73" transform="translate(667.724609 0)"/>
      <use xlink:href="#DejaVuSans-74" transform="translate(719.824219 0)"/>
      <use xlink:href="#DejaVuSans-65" transform="translate(759.033203 0)"/>
      <use xlink:href="#DejaVuSans-6d" transform="translate(820.556641 0)"/>
     </g>
    </g>
   </g>
   <g id="line2d_14">
    <path d="M 103.115349 232.36 
L 103.115349 7.2 
" clip-path="url(#pcfdc3d7c3a)" style="fill: none; stroke-dasharray: 0.8,1.32; stroke-dashoffset: 0; stroke: #4c78c8; stroke-opacity: 0.5; stroke-width: 0.8"/>
   </g>
   <g id="line2d_15">
    <path d="M 252.176088 232.36 
L 252.176088 7.2 
" clip-path="url(#pcfdc3d7c3a)" style="fill: none; stroke-dasharray: 0.8,1.32; stroke-dashoffset: 0; stroke: #d6604d; stroke-opacity: 0.5; stroke-width: 0.8"/>
   </g>
   <g id="patch_3">
    <path d="M 42.53875 232.36 
L 42.53875 7.2 
" style="fill: none; stroke: #000000; stroke-width: 0.8; stroke-linejoin: miter; stroke-linecap: square"/>
   </g>
   <g id="patch_4">
    <path d="M 42.53875 232.36 
L 646.68875 232.36 
" style="fill: none; stroke: #000000; stroke-width: 0.8; stroke-linejoin: miter; stroke-linecap: square"/>
   </g>
   <g id="line2d_16">
    <path d="M 113.461832 143.010794 
L 116.51402 143.010794 
L 116.51402 125.140952 
L 121.758719 125.140952 
L 121.758719 143.010794 
L 121.758719 143.010794 
L 121.758719 143.010794 
L 133.154321 143.010794 
L 133.154321 125.140952 
L 140.727691 125.140952 
L 140.727691 107.271111 
L 142.530793 107.271111 
L 142.530793 125.140952 
L 142.530793 125.140952 
L 142.530793 125.140952 
L 146.146734 125.140952 
L 146.146734 107.271111 
L 158.020412 107.271111 
L 158.020412 125.140952 
L 158.020412 125.140952 
L 158.020412 125.140952 
L 163.381623 125.140952 
L 163.381623 107.271111 
L 173.794891 107.271111 
L 173.794891 125.140952 
L 173.794891 125.140952 
L 173.794891 125.140952 
L 187.772624 125.140952 
L 187.772624 107.271111 
L 189.460655 107.271111 
L 189.460655 125.140952 
L 189.460655 125.140952 
L 189.460655 125.140952 
L 201.653199 125.140952 
L 201.653199 143.010794 
L 201.653199 143.010794 
L 201.653199 143.010794 
L 202.531113 143.010794 
L 202.531113 160.880635 
L 202.531113 160.880635 
L 202.531113 160.880635 
L 207.602141 160.880635 
L 207.602141 178.750476 
L 207.602141 178.750476 
L 207.602141 178.750476 
L 210.809424 178.750476 
L 210.809424 196.620317 
L 210.809424 196.620317 
L 210.809424 196.620317 
L 226.274872 196.620317 
L 226.274872 214.490159 
L 226.274872 214.490159 
L 226.274872 214.490159 
L 228.366818 214.490159 
L 228.366818 196.620317 
L 228.893154 196.620317 
L 228.893154 214.490159 
L 228.893154 214.490159 
L 228.893154 214.490159 
L 231.667724 214.490159 
L 231.667724 196.620317 
L 233.542825 196.620317 
L 233.542825 214.490159 
L 233.542825 214.490159 
L 233.542825 214.490159 
L 249.35096 214.490159 
L 249.35096 196.620317 
L 260.518591 196.620317 
L 260.518591 214.490159 
L 260.518591 214.490159 
L 260.518591 214.490159 
L 264.226081 214.490159 
L 264.226081 232.36 
L 277.065888 232.36 
L 277.065888 214.490159 
L 277.065888 214.490159 
L 277.065888 214.490159 
L 300.597459 214.490159 
L 300.597459 232.36 
L 315.504955 232.36 
L 315.504955 214.490159 
L 315.504955 214.490159 
L 315.504955 214.490159 
L 339.532556 214.490159 
L 339.532556 232.36 
L 356.416623 232.36 
L 356.416623 214.490159 
L 356.416623 214.490159 
L 356.416623 214.490159 
L 367.695457 214.490159 
L 367.695457 232.36 
L 378.990531 232.36 
L 378.990531 214.490159 
L 378.990531 214.490159 
L 378.990531 214.490159 
L 384.052905 214.490159 
L 384.052905 232.36 
L 384.920885 232.36 
L 384.920885 214.490159 
L 384.920885 214.490159 
L 384.920885 214.490159 
L 385.21285 214.490159 
L 385.21285 232.36 
L 395.328263 232.36 
L 395.328263 214.490159 
L 395.328263 214.490159 
L 395.328263 214.490159 
L 396.570115 214.490159 
L 396.570115 196.620317 
" clip-path="url(#pcfdc3d7c3a)" style="fill: none; stroke: #4c78c8; stroke-opacity: 0.4; stroke-width: 0.9; stroke-linecap: square"/>
   </g>
   <g id="line2d_17">
    <path d="M 106.213157 178.750476 
L 106.213157 178.750476 
L 106.213157 178.750476 
L 106.281746 178.750476 
L 106.281746 196.620317 
L 106.281746 196.620317 
L 106.281746 196.620317 
L 113.424359 196.620317 
L 113.424359 214.490159 
L 113.424359 214.490159 
L 113.424359 214.490159 
L 118.147972 214.490159 
L 118.147972 232.36 
L 126.117448 232.36 
L 126.117448 214.490159 
L 126.117448 214.490159 
L 126.117448 214.490159 
L 127.943819 214.490159 
L 127.943819 196.620317 
L 141.027184 196.620317 
L 141.027184 214.490159 
L 141.027184 214.490159 
L 141.027184 214.490159 
L 147.98626 214.490159 
L 147.98626 196.620317 
L 164.241393 196.620317 
L 164.241393 178.750476 
L 164.854848 178.750476 
L 164.854848 160.880635 
L 165.34008 160.880635 
L 165.34008 143.010794 
L 175.879739 143.010794 
L 175.879739 125.140952 
L 199.342666 125.140952 
L 199.342666 107.271111 
L 211.912163 107.271111 
L 211.912163 89.40127 
L 222.229073 89.40127 
L 222.229073 107.271111 
L 222.229073 107.271111 
L 222.229073 107.271111 
L 224.158905 107.271111 
L 224.158905 125.140952 
L 224.158905 125.140952 
L 224.158905 125.140952 
L 238.887494 125.140952 
L 238.887494 143.010794 
L 238.887494 143.010794 
L 238.887494 143.010794 
L 247.613732 143.010794 
L 247.613732 160.880635 
L 247.613732 160.880635 
L 247.613732 160.880635 
L 266.462578 160.880635 
L 266.462578 143.010794 
L 267.544479 143.010794 
L 267.544479 125.140952 
L 283.886811 125.140952 
L 283.886811 143.010794 
L 283.886811 143.010794 
L 283.886811 143.010794 
L 285.444664 143.010794 
L 285.444664 160.880635 
L 285.444664 160.880635 
L 285.444664 160.880635 
L 295.646469 160.880635 
L 295.646469 178.750476 
L 295.646469 178.750476 
L 295.646469 178.750476 
L 298.025608 178.750476 
L 298.025608 160.880635 
L 305.523214 160.880635 
L 305.523214 178.750476 
L 305.523214 178.750476 
L 305.523214 178.750476 
L 306.25739 178.750476 
L 306.25739 160.880635 
L 325.258108 160.880635 
L 325.258108 143.010794 
L 332.806219 143.010794 
L 332.806219 160.880635 
L 332.806219 160.880635 
L 332.806219 160.880635 
L 342.393903 160.880635 
L 342.393903 178.750476 
L 342.393903 178.750476 
L 342.393903 178.750476 
L 354.723456 178.750476 
L 354.723456 196.620317 
L 354.723456 196.620317 
L 354.723456 196.620317 
L 356.540176 196.620317 
L 356.540176 178.750476 
L 357.163318 178.750476 
L 357.163318 196.620317 
L 357.163318 196.620317 
L 357.163318 196.620317 
L 369.552977 196.620317 
L 369.552977 214.490159 
L 369.552977 214.490159 
L 369.552977 214.490159 
L 373.920651 214.490159 
L 373.920651 232.36 
" clip-path="url(#pcfdc3d7c3a)" style="fill: none; stroke: #4c78c8; stroke-opacity: 0.4; stroke-width: 0.9; stroke-linecap: square"/>
   </g>
   <g id="line2d_18">
    <path d="M 106.655784 143.010794 
L 108.266688 143.010794 
L 108.266688 160.880635 
L 108.266688 160.880635 
L 108.266688 160.880635 
L 115.015704 160.880635 
L 115.015704 178.750476 
L 115.015704 178.750476 
L 115.015704 178.750476 
L 118.302755 178.750476 
L 118.302755 160.880635 
L 148.031449 160.880635 
L 148.031449 143.010794 
L 150.633599 143.010794 
L 150.633599 125.140952 
L 178.260965 125.140952 
L 178.260965 107.271111 
L 178.880176 107.271111 
L 178.880176 89.40127 
L 183.518187 89.40127 
L 183.518187 71.531429 
L 189.403786 71.531429 
L 189.403786 53.661587 
L 219.924286 53.661587 
L 219.924286 71.531429 
L 219.924286 71.531429 
L 219.924286 71.531429 
L 224.186529 71.531429 
L 224.186529 89.40127 
L 224.186529 89.40127 
L 224.186529 89.40127 
L 226.067448 89.40127 
L 226.067448 107.271111 
L 226.067448 107.271111 
L 226.067448 107.271111 
L 243.247204 107.271111 
L 243.247204 89.40127 
L 247.445377 89.40127 
L 247.445377 71.531429 
L 248.022781 71.531429 
L 248.022781 89.40127 
L 248.022781 89.40127 
L 248.022781 89.40127 
L 266.390177 89.40127 
L 266.390177 71.531429 
L 267.165034 71.531429 
L 267.165034 53.661587 
L 275.953446 53.661587 
L 275.953446 71.531429 
L 275.953446 71.531429 
L 275.953446 71.531429 
L 276.880283 71.531429 
L 276.880283 53.661587 
L 288.490834 53.661587 
L 288.490834 35.791746 
L 305.877735 35.791746 
L 305.877735 53.661587 
L 305.877735 53.661587 
L 305.877735 53.661587 
L 324.837316 53.661587 
L 324.837316 35.791746 
L 327.003194 35.791746 
L 327.003194 17.921905 
L 333.00326 17.921905 
L 333.00326 35.791746 
L 333.00326 35.791746 
L 333.00326 35.791746 
L 347.825787 35.791746 
L 347.825787 53.661587 
L 347.825787 53.661587 
L 347.825787 53.661587 
L 352.222239 53.661587 
L 352.222239 71.531429 
L 352.222239 71.531429 
L 352.222239 71.531429 
L 369.367168 71.531429 
L 369.367168 53.661587 
" clip-path="url(#pcfdc3d7c3a)" style="fill: none; stroke: #4c78c8; stroke-opacity: 0.4; stroke-width: 0.9; stroke-linecap: square"/>
   </g>
   <g id="line2d_19">
    <path d="M 260.786866 160.880635 
L 260.786866 160.880635 
L 260.786866 160.880635 
L 264.743491 160.880635 
L 264.743491 178.750476 
L 264.743491 178.750476 
L 264.743491 178.750476 
L 267.326861 178.750476 
L 267.326861 160.880635 
L 273.649138 160.880635 
L 273.649138 143.010794 
L 282.91504 143.010794 
L 282.91504 160.880635 
L 282.91504 160.880635 
L 282.91504 160.880635 
L 286.698189 160.880635 
L 286.698189 178.750476 
L 286.698189 178.750476 
L 286.698189 178.750476 
L 288.582159 178.750476 
L 288.582159 196.620317 
L 288.582159 196.620317 
L 288.582159 196.620317 
L 296.102404 196.620317 
L 296.102404 214.490159 
L 296.102404 214.490159 
L 296.102404 214.490159 
L 329.238216 214.490159 
L 329.238216 232.36 
L 333.797138 232.36 
L 333.797138 214.490159 
L 333.797138 214.490159 
L 333.797138 214.490159 
L 336.40025 214.490159 
L 336.40025 232.36 
L 343.535091 232.36 
L 343.535091 214.490159 
L 343.535091 214.490159 
L 343.535091 214.490159 
L 345.166276 214.490159 
L 345.166276 196.620317 
L 346.703258 196.620317 
L 346.703258 178.750476 
L 358.801628 178.750476 
L 358.801628 196.620317 
L 358.801628 196.620317 
L 358.801628 196.620317 
L 367.149213 196.620317 
L 367.149213 214.490159 
L 367.149213 214.490159 
L 367.149213 214.490159 
L 370.173289 214.490159 
L 370.173289 232.36 
L 409.176571 232.36 
L 409.176571 214.490159 
L 409.176571 214.490159 
L 409.176571 214.490159 
L 412.884469 214.490159 
L 412.884469 196.620317 
L 439.17792 196.620317 
L 439.17792 178.750476 
L 457.492178 178.750476 
L 457.492178 196.620317 
L 457.492178 196.620317 
L 457.492178 196.620317 
L 457.618402 196.620317 
L 457.618402 214.490159 
L 457.618402 214.490159 
L 457.618402 214.490159 
L 458.511163 214.490159 
L 458.511163 232.36 
L 469.759252 232.36 
L 469.759252 214.490159 
L 469.759252 214.490159 
L 469.759252 214.490159 
L 472.350843 214.490159 
L 472.350843 196.620317 
L 485.855014 196.620317 
L 485.855014 214.490159 
L 485.855014 214.490159 
L 485.855014 214.490159 
L 491.07734 214.490159 
L 491.07734 196.620317 
L 503.160659 196.620317 
L 503.160659 178.750476 
L 508.715666 178.750476 
L 508.715666 196.620317 
L 508.715666 196.620317 
L 508.715666 196.620317 
" clip-path="url(#pcfdc3d7c3a)" style="fill: none; stroke: #d6604d; stroke-opacity: 0.4; stroke-width: 0.9; stroke-linecap: square"/>
   </g>
   <g id="line2d_20">
    <path d="M 258.326752 125.140952 
L 260.170564 125.140952 
L 260.170564 143.010794 
L 260.170564 143.010794 
L 260.170564 143.010794 
L 265.144062 143.010794 
L 265.144062 160.880635 
L 265.144062 160.880635 
L 265.144062 160.880635 
L 271.328319 160.880635 
L 271.328319 143.010794 
L 299.748193 143.010794 
L 299.748193 160.880635 
L 299.748193 160.880635 
L 299.748193 160.880635 
L 300.793918 160.880635 
L 300.793918 143.010794 
L 306.000683 143.010794 
L 306.000683 125.140952 
L 319.092301 125.140952 
L 319.092301 143.010794 
L 319.092301 143.010794 
L 319.092301 143.010794 
L 332.74374 143.010794 
L 332.74374 160.880635 
L 332.74374 160.880635 
L 332.74374 160.880635 
L 337.075029 160.880635 
L 337.075029 178.750476 
L 337.075029 178.750476 
L 337.075029 178.750476 
L 339.677328 178.750476 
L 339.677328 196.620317 
L 339.677328 196.620317 
L 339.677328 196.620317 
L 339.855432 196.620317 
L 339.855432 214.490159 
L 339.855432 214.490159 
L 339.855432 214.490159 
L 345.371266 214.490159 
L 345.371266 196.620317 
L 360.790858 196.620317 
L 360.790858 178.750476 
L 362.654157 178.750476 
L 362.654157 196.620317 
L 362.654157 196.620317 
L 362.654157 196.620317 
L 365.300495 196.620317 
L 365.300495 178.750476 
L 380.826793 178.750476 
L 380.826793 196.620317 
L 380.826793 196.620317 
L 380.826793 196.620317 
L 386.088215 196.620317 
L 386.088215 214.490159 
L 386.088215 214.490159 
L 386.088215 214.490159 
L 395.687074 214.490159 
L 395.687074 232.36 
L 402.78791 232.36 
L 402.78791 214.490159 
L 402.78791 214.490159 
L 402.78791 214.490159 
L 405.118426 214.490159 
L 405.118426 232.36 
L 433.950377 232.36 
L 433.950377 214.490159 
L 433.950377 214.490159 
L 433.950377 214.490159 
L 434.935418 214.490159 
L 434.935418 196.620317 
L 437.414368 196.620317 
L 437.414368 178.750476 
L 445.285648 178.750476 
L 445.285648 160.880635 
L 448.413441 160.880635 
L 448.413441 178.750476 
L 448.413441 178.750476 
L 448.413441 178.750476 
L 452.944745 178.750476 
L 452.944745 196.620317 
L 452.944745 196.620317 
L 452.944745 196.620317 
L 453.293411 196.620317 
L 453.293411 178.750476 
L 458.195262 178.750476 
L 458.195262 196.620317 
L 458.195262 196.620317 
L 458.195262 196.620317 
L 466.350357 196.620317 
L 466.350357 214.490159 
L 466.350357 214.490159 
L 466.350357 214.490159 
L 468.199273 214.490159 
L 468.199273 232.36 
L 469.496061 232.36 
L 469.496061 214.490159 
L 469.496061 214.490159 
L 469.496061 214.490159 
L 482.993485 214.490159 
L 482.993485 196.620317 
L 495.180563 196.620317 
L 495.180563 178.750476 
L 514.758962 178.750476 
L 514.758962 196.620317 
L 514.758962 196.620317 
L 514.758962 196.620317 
L 530.348519 196.620317 
L 530.348519 214.490159 
L 530.348519 214.490159 
L 530.348519 214.490159 
L 541.515821 214.490159 
L 541.515821 232.36 
L 543.323077 232.36 
L 543.323077 214.490159 
L 543.323077 214.490159 
L 543.323077 214.490159 
" clip-path="url(#pcfdc3d7c3a)" style="fill: none; stroke: #d6604d; stroke-opacity: 0.4; stroke-width: 0.9; stroke-linecap: square"/>
   </g>
   <g id="line2d_21">
    <path d="M 257.960483 160.880635 
L 257.960483 160.880635 
L 257.960483 160.880635 
L 263.254194 160.880635 
L 263.254194 178.750476 
L 263.254194 178.750476 
L 263.254194 178.750476 
L 290.61946 178.750476 
L 290.61946 196.620317 
L 290.61946 196.620317 
L 290.61946 196.620317 
L 291.913955 196.620317 
L 291.913955 214.490159 
L 291.913955 214.490159 
L 291.913955 214.490159 
L 293.04811 214.490159 
L 293.04811 196.620317 
L 303.895532 196.620317 
L 303.895532 214.490159 
L 303.895532 214.490159 
L 303.895532 214.490159 
L 314.212381 214.490159 
L 314.212381 232.36 
L 368.911271 232.36 
L 368.911271 214.490159 
L 368.911271 214.490159 
L 368.911271 214.490159 
L 374.874969 214.490159 
L 374.874969 232.36 
L 380.022959 232.36 
L 380.022959 214.490159 
L 380.022959 214.490159 
L 380.022959 214.490159 
L 387.142735 214.490159 
L 387.142735 232.36 
L 434.288508 232.36 
L 434.288508 214.490159 
L 434.288508 214.490159 
L 434.288508 214.490159 
L 435.407975 214.490159 
L 435.407975 196.620317 
L 448.031782 196.620317 
L 448.031782 214.490159 
L 448.031782 214.490159 
L 448.031782 214.490159 
L 451.573366 214.490159 
L 451.573366 196.620317 
L 459.013973 196.620317 
L 459.013973 214.490159 
L 459.013973 214.490159 
L 459.013973 214.490159 
L 474.327833 214.490159 
L 474.327833 196.620317 
L 477.618861 196.620317 
L 477.618861 178.750476 
L 480.727082 178.750476 
L 480.727082 160.880635 
L 497.093317 160.880635 
L 497.093317 178.750476 
L 497.093317 178.750476 
L 497.093317 178.750476 
L 510.42271 178.750476 
L 510.42271 196.620317 
L 510.42271 196.620317 
L 510.42271 196.620317 
L 535.238189 196.620317 
L 535.238189 214.490159 
L 535.238189 214.490159 
L 535.238189 214.490159 
" clip-path="url(#pcfdc3d7c3a)" style="fill: none; stroke: #d6604d; stroke-opacity: 0.4; stroke-width: 0.9; stroke-linecap: square"/>
   </g>
   <g id="PathCollection_1">
    <defs>
     <path id="m01285ed814" d="M 0 2 
C 0.530406 2 1.03916 1.789267 1.414214 1.414214 
C 1.789267 1.03916 2 0.530406 2 0 
C 2 -0.530406 1.789267 -1.03916 1.414214 -1.414214 
C 1.03916 -1.789267 0.530406 -2 0 -2 
C -0.530406 -2 -1.03916 -1.789267 -1.414214 -1.414214 
C -1.789267 -1.03916 -2 -0.530406 -2 0 
C -2 0.530406 -1.789267 1.03916 -1.414214 1.414214 
C -1.03916 1.789267 -0.530406 2 0 2 
z
" style="stroke: #ffffff; stroke-width: 0.4"/>
    </defs>
    <g clip-path="url(#pcfdc3d7c3a)">
     <use xlink:href="#m01285ed814" x="62.69166" y="214.490159" style="fill: #9aa0a6; stroke: #ffffff; stroke-width: 0.4"/>
     <use xlink:href="#m01285ed814" x="63.192072" y="196.620317" style="fill: #9aa0a6; stroke: #ffffff; stroke-width: 0.4"/>
     <use xlink:href="#m01285ed814" x="68.182313" y="196.620317" style="fill: #9aa0a6; stroke: #ffffff; stroke-width: 0.4"/>
     <use xlink:href="#m01285ed814" x="90.490918" y="196.620317" style="fill: #9aa0a6; stroke: #ffffff; stroke-width: 0.4"/>
     <use xlink:href="#m01285ed814" x="92.287827" y="178.750476" style="fill: #9aa0a6; stroke: #ffffff; stroke-width: 0.4"/>
     <use xlink:href="#m01285ed814" x="103.115349" y="160.880635" style="fill: #9aa0a6; stroke: #ffffff; stroke-width: 0.4"/>
     <use xlink:href="#m01285ed814" x="103.712989" y="143.010794" style="fill: #9aa0a6; stroke: #ffffff; stroke-width: 0.4"/>
     <use xlink:href="#m01285ed814" x="108.587269" y="125.140952" style="fill: #9aa0a6; stroke: #ffffff; stroke-width: 0.4"/>
     <use xlink:href="#m01285ed814" x="122.494238" y="143.010794" style="fill: #9aa0a6; stroke: #ffffff; stroke-width: 0.4"/>
     <use xlink:href="#m01285ed814" x="143.228618" y="178.750476" style="fill: #9aa0a6; stroke: #ffffff; stroke-width: 0.4"/>
     <use xlink:href="#m01285ed814" x="175.979866" y="196.620317" style="fill: #9aa0a6; stroke: #ffffff; stroke-width: 0.4"/>
     <use xlink:href="#m01285ed814" x="199.644107" y="214.490159" style="fill: #9aa0a6; stroke: #ffffff; stroke-width: 0.4"/>
     <use xlink:href="#m01285ed814" x="202.982699" y="196.620317" style="fill: #9aa0a6; stroke: #ffffff; stroke-width: 0.4"/>
     <use xlink:href="#m01285ed814" x="211.090189" y="178.750476" style="fill: #9aa0a6; stroke: #ffffff; stroke-width: 0.4"/>
     <use xlink:href="#m01285ed814" x="213.01315" y="160.880635" style="fill: #9aa0a6; stroke: #ffffff; stroke-width: 0.4"/>
     <use xlink:href="#m01285ed814" x="215.022764" y="143.010794" style="fill: #9aa0a6; stroke: #ffffff; stroke-width: 0.4"/>
     <use xlink:href="#m01285ed814" x="252.176088" y="143.010794" style="fill: #9aa0a6; stroke: #ffffff; stroke-width: 0.4"/>
     <use xlink:href="#m01285ed814" x="284.690096" y="160.880635" style="fill: #9aa0a6; stroke: #ffffff; stroke-width: 0.4"/>
     <use xlink:href="#m01285ed814" x="356.134167" y="214.490159" style="fill: #9aa0a6; stroke: #ffffff; stroke-width: 0.4"/>
     <use xlink:href="#m01285ed814" x="375.173515" y="196.620317" style="fill: #9aa0a6; stroke: #ffffff; stroke-width: 0.4"/>
     <use xlink:href="#m01285ed814" x="392.188203" y="196.620317" style="fill: #9aa0a6; stroke: #ffffff; stroke-width: 0.4"/>
     <use xlink:href="#m01285ed814" x="393.114936" y="178.750476" style="fill: #9aa0a6; stroke: #ffffff; stroke-width: 0.4"/>
     <use xlink:href="#m01285ed814" x="398.224759" y="160.880635" style="fill: #9aa0a6; stroke: #ffffff; stroke-width: 0.4"/>
     <use xlink:href="#m01285ed814" x="404.974176" y="178.750476" style="fill: #9aa0a6; stroke: #ffffff; stroke-width: 0.4"/>
     <use xlink:href="#m01285ed814" x="407.077735" y="160.880635" style="fill: #9aa0a6; stroke: #ffffff; stroke-width: 0.4"/>
     <use xlink:href="#m01285ed814" x="413.512329" y="160.880635" style="fill: #9aa0a6; stroke: #ffffff; stroke-width: 0.4"/>
     <use xlink:href="#m01285ed814" x="422.479173" y="143.010794" style="fill: #9aa0a6; stroke: #ffffff; stroke-width: 0.4"/>
     <use xlink:href="#m01285ed814" x="431.613093" y="160.880635" style="fill: #9aa0a6; stroke: #ffffff; stroke-width: 0.4"/>
     <use xlink:href="#m01285ed814" x="486.124536" y="214.490159" style="fill: #9aa0a6; stroke: #ffffff; stroke-width: 0.4"/>
     <use xlink:href="#m01285ed814" x="511.928703" y="214.490159" style="fill: #9aa0a6; stroke: #ffffff; stroke-width: 0.4"/>
     <use xlink:href="#m01285ed814" x="521.355714" y="196.620317" style="fill: #9aa0a6; stroke: #ffffff; stroke-width: 0.4"/>
     <use xlink:href="#m01285ed814" x="541.540043" y="178.750476" style="fill: #9aa0a6; stroke: #ffffff; stroke-width: 0.4"/>
     <use xlink:href="#m01285ed814" x="557.623329" y="160.880635" style="fill: #9aa0a6; stroke: #ffffff; stroke-width: 0.4"/>
     <use xlink:href="#m01285ed814" x="580.421617" y="160.880635" style="fill: #9aa0a6; stroke: #ffffff; stroke-width: 0.4"/>
     <use xlink:href="#m01285ed814" x="609.979621" y="160.880635" style="fill: #9aa0a6; stroke: #ffffff; stroke-width: 0.4"/>
     <use xlink:href="#m01285ed814" x="610.624215" y="143.010794" style="fill: #9aa0a6; stroke: #ffffff; stroke-width: 0.4"/>
     <use xlink:href="#m01285ed814" x="618.111923" y="160.880635" style="fill: #9aa0a6; stroke: #ffffff; stroke-width: 0.4"/>
    </g>
   </g>
   <g id="line2d_22">
    <path d="M 62.69166 214.490159 
L 63.192072 214.490159 
L 63.192072 196.620317 
L 67.457306 196.620317 
L 67.457306 214.490159 
L 67.457306 214.490159 
L 68.182313 214.490159 
L 68.182313 196.620317 
L 87.217736 196.620317 
L 87.217736 214.490159 
L 87.217736 214.490159 
L 90.490918 214.490159 
L 90.490918 196.620317 
L 92.287827 196.620317 
L 92.287827 178.750476 
L 103.115349 178.750476 
L 103.115349 160.880635 
L 103.712989 160.880635 
L 103.712989 143.010794 
L 108.587269 143.010794 
L 108.587269 125.140952 
L 120.220445 125.140952 
L 120.220445 143.010794 
L 120.220445 143.010794 
L 120.618951 143.010794 
L 120.618951 160.880635 
L 120.618951 160.880635 
L 122.494238 160.880635 
L 122.494238 143.010794 
L 123.903854 143.010794 
L 123.903854 160.880635 
L 123.903854 160.880635 
L 135.570058 160.880635 
L 135.570058 178.750476 
L 135.570058 178.750476 
L 139.259993 178.750476 
L 139.259993 196.620317 
L 139.259993 196.620317 
L 143.228618 196.620317 
L 143.228618 178.750476 
L 152.44468 178.750476 
L 152.541289 214.490159 
L 152.541289 214.490159 
L 175.979866 214.490159 
L 175.979866 196.620317 
L 176.826569 196.620317 
L 176.826569 214.490159 
L 176.826569 214.490159 
L 182.989069 214.490159 
L 182.989069 232.36 
L 199.644107 232.36 
L 199.644107 214.490159 
L 199.644107 214.490159 
L 202.982699 214.490159 
L 202.982699 196.620317 
L 211.090189 196.620317 
L 211.090189 178.750476 
L 213.01315 178.750476 
L 213.01315 160.880635 
L 215.022764 160.880635 
L 215.022764 143.010794 
L 246.341607 143.010794 
L 246.341607 160.880635 
L 246.341607 160.880635 
L 252.176088 160.880635 
L 252.176088 143.010794 
L 260.057363 143.010794 
L 260.057363 160.880635 
L 260.057363 160.880635 
L 279.443619 160.880635 
L 279.443619 178.750476 
L 279.443619 178.750476 
L 284.690096 178.750476 
L 284.690096 160.880635 
L 290.828784 160.880635 
L 290.828784 178.750476 
L 290.828784 178.750476 
L 297.877065 178.750476 
L 297.877065 196.620317 
L 297.877065 196.620317 
L 309.776251 196.620317 
L 309.776251 214.490159 
L 309.776251 214.490159 
L 335.980317 214.490159 
L 335.980317 232.36 
L 356.134167 232.36 
L 356.134167 214.490159 
L 356.134167 214.490159 
L 375.173515 214.490159 
L 375.173515 196.620317 
L 385.448694 196.620317 
L 385.448694 214.490159 
L 385.448694 214.490159 
L 392.188203 214.490159 
L 392.188203 196.620317 
L 393.114936 196.620317 
L 393.114936 178.750476 
L 398.224759 178.750476 
L 398.224759 160.880635 
L 403.516037 160.880635 
L 403.516037 178.750476 
L 403.516037 178.750476 
L 404.748189 178.750476 
L 404.748189 196.620317 
L 404.748189 196.620317 
L 404.974176 196.620317 
L 404.974176 178.750476 
L 407.077735 178.750476 
L 407.077735 160.880635 
L 408.67475 160.880635 
L 408.67475 178.750476 
L 408.67475 178.750476 
L 413.512329 178.750476 
L 413.512329 160.880635 
L 422.479173 160.880635 
L 422.479173 143.010794 
L 423.636436 143.010794 
L 423.636436 160.880635 
L 423.636436 160.880635 
L 427.119995 160.880635 
L 427.119995 178.750476 
L 427.119995 178.750476 
L 431.613093 178.750476 
L 431.613093 160.880635 
L 431.721985 178.750476 
L 447.194722 178.750476 
L 447.194722 196.620317 
L 447.194722 196.620317 
L 461.113971 196.620317 
L 461.113971 214.490159 
L 461.113971 214.490159 
L 463.89524 214.490159 
L 463.89524 232.36 
L 486.124536 232.36 
L 486.124536 214.490159 
L 486.124536 214.490159 
L 488.768148 214.490159 
L 488.768148 232.36 
L 511.928703 232.36 
L 511.928703 214.490159 
L 511.928703 214.490159 
L 521.355714 214.490159 
L 521.355714 196.620317 
L 541.540043 196.620317 
L 541.540043 178.750476 
L 557.623329 178.750476 
L 557.623329 160.880635 
L 579.475582 160.880635 
L 579.475582 178.750476 
L 579.475582 178.750476 
L 580.421617 178.750476 
L 580.421617 160.880635 
L 606.896244 160.880635 
L 606.896244 178.750476 
L 606.896244 178.750476 
L 609.979621 178.750476 
L 609.979621 160.880635 
L 610.624215 160.880635 
L 610.624215 143.010794 
L 610.750694 143.010794 
L 610.750694 160.880635 
L 610.750694 160.880635 
L 615.368117 160.880635 
L 615.368117 178.750476 
L 615.368117 178.750476 
L 618.111923 178.750476 
L 618.111923 160.880635 
L 618.879365 160.880635 
L 618.879365 178.750476 
L 618.879365 178.750476 
" clip-path="url(#pcfdc3d7c3a)" style="fill: none; stroke: #000000; stroke-width: 1.8; stroke-linecap: square"/>
   </g>
   <g id="legend_1">
    <g id="patch_5">
     <path d="M 49.53875 59.234375 
L 168.355937 59.234375 
Q 170.355937 59.234375 170.355937 57.234375 
L 170.355937 14.2 
Q 170.355937 12.2 168.355937 12.2 
L 49.53875 12.2 
Q 47.53875 12.2 47.53875 14.2 
L 47.53875 57.234375 
Q 47.53875 59.234375 49.53875 59.234375 
z
" style="fill: #ffffff; opacity: 0.8; stroke: #cccccc; stroke-linejoin: miter"/>
    </g>
    <g id="line2d_23">
     <path d="M 51.53875 20.298438 
L 61.53875 20.298438 
L 61.53875 20.298438 
L 71.53875 20.298438 
L 71.53875 20.298438 
" style="fill: none; stroke: #000000; stroke-width: 1.8; stroke-linecap: square"/>
    </g>
    <g id="text_16">
     <!-- Outer path -->
     <g transform="translate(79.53875 23.798438) scale(0.1 -0.1)">
      <defs>
       <path id="DejaVuSans-4f" d="M 2522 4238 
Q 1834 4238 1429 3725 
Q 1025 3213 1025 2328 
Q 1025 1447 1429 934 
Q 1834 422 2522 422 
Q 3209 422 3611 934 
Q 4013 1447 4013 2328 
Q 4013 3213 3611 3725 
Q 3209 4238 2522 4238 
z
M 2522 4750 
Q 3503 4750 4090 4092 
Q 4678 3434 4678 2328 
Q 4678 1225 4090 567 
Q 3503 -91 2522 -91 
Q 1538 -91 948 565 
Q 359 1222 359 2328 
Q 359 3434 948 4092 
Q 1538 4750 2522 4750 
z
" transform="scale(0.015625)"/>
       <path id="DejaVuSans-70" d="M 1159 525 
L 1159 -1331 
L 581 -1331 
L 581 3500 
L 1159 3500 
L 1159 2969 
Q 1341 3281 1617 3432 
Q 1894 3584 2278 3584 
Q 2916 3584 3314 3078 
Q 3713 2572 3713 1747 
Q 3713 922 3314 415 
Q 2916 -91 2278 -91 
Q 1894 -91 1617 61 
Q 1341 213 1159 525 
z
M 3116 1747 
Q 3116 2381 2855 2742 
Q 2594 3103 2138 3103 
Q 1681 3103 1420 2742 
Q 1159 2381 1159 1747 
Q 1159 1113 1420 752 
Q 1681 391 2138 391 
Q 2594 391 2855 752 
Q 3116 1113 3116 1747 
z
" transform="scale(0.015625)"/>
       <path id="DejaVuSans-68" d="M 3513 2113 
L 3513 0 
L 2938 0 
L 2938 2094 
Q 2938 2591 2744 2837 
Q 2550 3084 2163 3084 
Q 1697 3084 1428 2787 
Q 1159 2491 1159 1978 
L 1159 0 
L 581 0 
L 581 4863 
L 1159 4863 
L 1159 2956 
Q 1366 3272 1645 3428 
Q 1925 3584 2291 3584 
Q 2894 3584 3203 3211 
Q 3513 2838 3513 2113 
z
" transform="scale(0.015625)"/>
      </defs>
      <use xlink:href="#DejaVuSans-4f"/>
      <use xlink:href="#DejaVuSans-75" transform="translate(78.710938 0)"/>
      <use xlink:href="#DejaVuSans-74" transform="translate(142.089844 0)"/>
      <use xlink:href="#DejaVuSans-65" transform="translate(181.298828 0)"/>
      <use xlink:href="#DejaVuSans-72" transform="translate(242.822266 0)"/>
      <use xlink:href="#DejaVuSans-20" transform="translate(283.935547 0)"/>
      <use xlink:href="#DejaVuSans-70" transform="translate(315.722656 0)"/>
      <use xlink:href="#DejaVuSans-61" transform="translate(379.199219 0)"/>
      <use xlink:href="#DejaVuSans-74" transform="translate(440.478516 0)"/>
      <use xlink:href="#DejaVuSans-68" transform="translate(479.6875 0)"/>
     </g>
    </g>
    <g id="PathCollection_2">
     <g>
      <use xlink:href="#m01285ed814" x="61.53875" y="35.851563" style="fill: #9aa0a6; stroke: #ffffff; stroke-width: 0.4"/>
     </g>
    </g>
    <g id="text_17">
     <!-- Triggering events -->
     <g transform="translate(79.53875 38.476563) scale(0.1 -0.1)">
      <defs>
       <path id="DejaVuSans-54" d="M -19 4666 
L 3928 4666 
L 3928 4134 
L 2272 4134 
L 2272 0 
L 1638 0 
L 1638 4134 
L -19 4134 
L -19 4666 
z
" transform="scale(0.015625)"/>
       <path id="DejaVuSans-67" d="M 2906 1791 
Q 2906 2416 2648 2759 
Q 2391 3103 1925 3103 
Q 1463 3103 1205 2759 
Q 947 2416 947 1791 
Q 947 1169 1205 825 
Q 1463 481 1925 481 
Q 2391 481 2648 825 
Q 2906 1169 2906 1791 
z
M 3481 434 
Q 3481 -459 3084 -895 
Q 2688 -1331 1869 -1331 
Q 1566 -1331 1297 -1286 
Q 1028 -1241 775 -1147 
L 775 -588 
Q 1028 -725 1275 -790 
Q 1522 -856 1778 -856 
Q 2344 -856 2625 -561 
Q 2906 -266 2906 331 
L 2906 616 
Q 2728 306 2450 153 
Q 2172 0 1784 0 
Q 1141 0 747 490 
Q 353 981 353 1791 
Q 353 2603 747 3093 
Q 1141 3584 1784 3584 
Q 2172 3584 2450 3431 
Q 2728 3278 2906 2969 
L 2906 3500 
L 3481 3500 
L 3481 434 
z
" transform="scale(0.015625)"/>
       <path id="DejaVuSans-76" d="M 191 3500 
L 800 3500 
L 1894 563 
L 2988 3500 
L 3597 3500 
L 2284 0 
L 1503 0 
L 191 3500 
z
" transform="scale(0.015625)"/>
      </defs>
      <use xlink:href="#DejaVuSans-54"/>
      <use xlink:href="#DejaVuSans-72" transform="translate(46.333984 0)"/>
      <use xlink:href="#DejaVuSans-69" transform="translate(87.447266 0)"/>
      <use xlink:href="#DejaVuSans-67" transform="translate(115.230469 0)"/>
      <use xlink:href="#DejaVuSans-67" transform="translate(178.707031 0)"/>
      <use xlink:href="#DejaVuSans-65" transform="translate(242.183594 0)"/>
      <use xlink:href="#DejaVuSans-72" transform="translate(303.707031 0)"/>
      <use xlink:href="#DejaVuSans-69" transform="translate(344.820312 0)"/>
      <use xlink:href="#DejaVuSans-6e" transform="translate(372.603516 0)"/>
      <use xlink:href="#DejaVuSans-67" transform="translate(435.982422 0)"/>
      <use xlink:href="#DejaVuSans-20" transform="translate(499.458984 0)"/>
      <use xlink:href="#DejaVuSans-65" transform="translate(531.246094 0)"/>
      <use xlink:href="#DejaVuSans-76" transform="translate(592.769531 0)"/>
      <use xlink:href="#DejaVuSans-65" transform="translate(651.949219 0)"/>
      <use xlink:href="#DejaVuSans-6e" transform="translate(713.472656 0)"/>
      <use xlink:href="#DejaVuSans-74" transform="translate(776.851562 0)"/>
      <use xlink:href="#DejaVuSans-73" transform="translate(816.060547 0)"/>
     </g>
    </g>
    <g id="line2d_24">
     <path d="M 51.53875 49.654688 
L 61.53875 49.654688 
L 61.53875 49.654688 
L 71.53875 49.654688 
L 71.53875 49.654688 
" style="fill: none; stroke: #4c78c8; stroke-opacity: 0.4; stroke-width: 0.9; stroke-linecap: square"/>
    </g>
    <g id="text_18">
     <!-- Inner branches -->
     <g transform="translate(79.53875 53.154688) scale(0.1 -0.1)">
      <defs>
       <path id="DejaVuSans-49" d="M 628 4666 
L 1259 4666 
L 1259 0 
L 628 0 
L 628 4666 
z
" transform="scale(0.015625)"/>
       <path id="DejaVuSans-63" d="M 3122 3366 
L 3122 2828 
Q 2878 2963 2633 3030 
Q 2388 3097 2138 3097 
Q 1578 3097 1268 2742 
Q 959 2388 959 1747 
Q 959 1106 1268 751 
Q 1578 397 2138 397 
Q 2388 397 2633 464 
Q 2878 531 3122 666 
L 3122 134 
Q 2881 22 2623 -34 
Q 2366 -91 2075 -91 
Q 1284 -91 818 406 
Q 353 903 353 1747 
Q 353 2603 823 3093 
Q 1294 3584 2113 3584 
Q 2378 3584 2631 3529 
Q 2884 3475 3122 3366 
z
" transform="scale(0.015625)"/>
      </defs>
      <use xlink:href="#DejaVuSans-49"/>
      <use xlink:href="#DejaVuSans-6e" transform="translate(29.492188 0)"/>
      <use xlink:href="#DejaVuSans-6e" transform="translate(92.871094 0)"/>
      <use xlink:href="#DejaVuSans-65" transform="translate(156.25 0)"/>
      <use xlink:href="#DejaVuSans-72" transform="translate(217.773438 0)"/>
      <use xlink:href="#DejaVuSans-20" transform="translate(258.886719 0)"/>
      <use xlink:href="#DejaVuSans-62" transform="translate(290.673828 0)"/>
      <use xlink:href="#DejaVuSans-72" transform="translate(354.150391 0)"/>
      <use xlink:href="#DejaVuSans-61" transform="translate(395.263672 0)"/>
      <use xlink:href="#DejaVuSans-6e" transform="translate(456.542969 0)"/>
      <use xlink:href="#DejaVuSans-63" transform="translate(519.921875 0)"/>
      <use xlink:href="#DejaVuSans-68" transform="translate(574.902344 0)"/>
      <use xlink:href="#DejaVuSans-65" transform="translate(638.28125 0)"/>
      <use xlink:href="#DejaVuSans-73" transform="translate(699.804688 0)"/>
     </g>
    </g>
   </g>
   <g id="PathCollection_3">
    <defs>
     <path id="md243801949" d="M 0 4.472136 
C 1.186024 4.472136 2.323632 4.000923 3.162278 3.162278 
C 4.000923 2.323632 4.472136 1.186024 4.472136 0 
C 4.472136 -1.186024 4.000923 -2.323632 3.162278 -3.162278 
C 2.323632 -4.000923 1.186024 -4.472136 0 -4.472136 
C -1.186024 -4.472136 -2.323632 -4.000923 -3.162278 -3.162278 
C -4.000923 -2.323632 -4.472136 -1.186024 -4.472136 0 
C -4.472136 1.186024 -4.000923 2.323632 -3.162278 3.162278 
C -2.323632 4.000923 -1.186024 4.472136 0 4.472136 
z
" style="stroke: #ffffff; stroke-width: 0.9"/>
    </defs>
    <g clip-path="url(#pcfdc3d7c3a)">
     <use xlink:href="#md243801949" x="103.115349" y="160.880635" style="fill: #4c78c8; stroke: #ffffff; stroke-width: 0.9"/>
    </g>
   </g>
   <g id="PathCollection_4">
    <defs>
     <path id="m811d9c44b1" d="M 0 4.472136 
C 1.186024 4.472136 2.323632 4.000923 3.162278 3.162278 
C 4.000923 2.323632 4.472136 1.186024 4.472136 0 
C 4.472136 -1.186024 4.000923 -2.323632 3.162278 -3.162278 
C 2.323632 -4.000923 1.186024 -4.472136 0 -4.472136 
C -1.186024 -4.472136 -2.323632 -4.000923 -3.162278 -3.162278 
C -4.000923 -2.323632 -4.472136 -1.186024 -4.472136 0 
C -4.472136 1.186024 -4.000923 2.323632 -3.162278 3.162278 
C -2.323632 4.000923 -1.186024 4.472136 0 4.472136 
z
" style="stroke: #ffffff; stroke-width: 0.9"/>
    </defs>
    <g clip-path="url(#pcfdc3d7c3a)">
     <use xlink:href="#m811d9c44b1" x="252.176088" y="143.010794" style="fill: #d6604d; stroke: #ffffff; stroke-width: 0.9"/>
    </g>
   </g>
  </g>
 </g>
 <defs>
  <clipPath id="pcfdc3d7c3a">
   <rect x="42.53875" y="7.2" width="604.15" height="225.16"/>
  </clipPath>
 </defs>
</svg>
